<?xml version="1.0" encoding="UTF-8"?>
<svg id="Layer_1" xmlns="http://www.w3.org/2000/svg" version="1.1" viewBox="0 0 142.26 142.26">
  <!-- Generator: Adobe Illustrator 29.1.0, SVG Export Plug-In . SVG Version: 2.1.0 Build 142)  -->
  <defs>
    <style>
      .st0 {
        stroke: #008ac0;
        stroke-miterlimit: 10;
        stroke-width: 4px;
      }

      .st0, .st1 {
        fill: #fff;
      }

      .st2 {
        fill: #008ac0;
      }

      .st3 {
        fill: #055373;
      }
    </style>
  </defs>
  <rect class="st0" x="9.36" y="9.36" width="123.53" height="123.53" rx="7.95" ry="7.95" transform="translate(-9.73 11.3) rotate(-8.5)"/>
  <g>
    <path class="st2" d="M73.15,78.71c-3.84-6.31-9.83-11.86-12.63-14.98-2.01-2.24-2.87-2.39-3.6-3.41-.4-.56-2.27-3.97-2.44-6.17s2.97-8.84,1.19-13.56c-2.95-7.85-11.36-11.96-18.78-9.17s-11.03,11.42-8.08,19.27c1.77,4.72,8.51,7.64,9.83,9.41s2.17,5.56,2.23,6.25c.12,1.26-.42,1.93-.46,4.94-.05,4.19-.9,12.32.38,19.59.5,2.84,4.98,23.17,7.06,26.56,2.22,2.31,14.16-.8,20.23-3.08s17.1-7.82,17.25-11.02c-.66-3.92-10.7-22.17-12.19-24.63Z"/>
    <path class="st1" d="M73.1,78.74c-3.6-5.84-8.65-10.56-13.3-15.53-1.14-1.27-2.86-2.06-3.58-3.68-1.16-2.24-2.5-4.87-1.71-7.45,0,0,.58-2.5.58-2.5,1.44-5.4.96-9.72-3.02-13.88-11.42-11.41-28.18.82-22.03,15.3,1.53,2.84,4.45,4.67,7.12,6.52,1.58.93,3.03,2.51,3.6,4.33.61,1.78,1.35,3.58,1.21,5.48-.14,1-.3,1.69-.36,2.51-.08,1.61-.24,5.93-.34,7.63-.21,5.08-.19,10.1.88,15.06,0,0,1.07,5,1.07,5,1.6,6.48,2.69,13.4,5.27,19.53,0,0-.1-.12-.1-.12.31.34,1.17.54,1.95.6,10.13.03,25.77-5.6,33.52-12.14.6-.52,1.22-1.47,1.27-2.01-.53-2.17-1.56-4.27-2.5-6.34-2.95-6.21-6.15-12.31-9.54-18.29h0ZM73.2,78.68c3.43,5.97,6.66,12.05,9.66,18.25.96,2.08,1.99,4.14,2.56,6.4-.08.94-.74,1.64-1.34,2.27-7.78,6.73-23.5,12.65-33.79,12.73-.86-.08-1.81-.17-2.5-.82-.83-1.54-1.31-3.2-1.82-4.83-1.47-4.92-2.66-9.91-3.81-14.91-1.73-6.63-2.52-13.49-2.1-20.35.22-3,.05-7.31.68-10.23.11-1.65-.58-3.34-1.1-4.91-.53-1.68-1.67-2.89-3.15-3.8-2.77-1.95-5.81-3.89-7.44-6.98-1.43-3.15-1.73-6.76-.92-10.1,2.66-11.31,16.61-14.6,24.36-6.1,4.03,4.35,4.51,8.83,2.95,14.37,0,0-.61,2.49-.61,2.49-.81,2.54.5,5.01,1.62,7.24.71,1.61,2.39,2.36,3.51,3.64,4.63,5.01,9.66,9.76,13.23,15.64h0Z"/>
  </g>
  <g>
    <path class="st3" d="M106.07,82.52c-.7-7.35-3.68-14.96-4.84-18.98-.83-2.9-1.54-3.4-1.76-4.64-.12-.68-.32-4.56.49-6.62s6.52-6.66,6.98-11.68c.76-8.35-5.02-15.71-12.91-16.43s-14.91,5.47-15.67,13.82c-.46,5.02,4.33,10.58,4.75,12.75.42,2.17-.47,5.95-.71,6.6-.44,1.19-1.22,1.55-2.57,4.25-1.87,3.75-6.17,10.69-8.2,17.79-.79,2.77-5.62,23.02-5.21,26.98,1,3.05,13.09,5.45,19.55,6.04s18.79.41,20.32-2.4c1.11-3.82.03-24.61-.24-27.48Z"/>
    <path class="st1" d="M105.95,82.53c-.97-7.57-3.39-14.99-6.24-22.06-.43-.74-.67-1.73-.68-2.59-.04-2.13-.22-4.56.91-6.53,1.61-2.39,3.86-4.71,5.11-7.27,2.88-5.74-.15-13.41-5.41-16.63-8.68-5.37-19.12,1.59-19.25,11.32.22,3.85,3.15,7.18,4.66,10.77.26.74.37,1.62.38,2.27-.06,2.51-.27,5.28-1.51,7.48-1.04,1.42-1.78,2.69-2.54,4.23,0,0-2.46,4.51-2.46,4.51-2.39,4.46-4.47,8.82-5.73,13.67,0,0-1.27,4.93-1.27,4.93-1.49,5.98-3.53,14.33-4.07,19.26-.02,0,.09.21.31.4.22.2.5.41.83.61,2.12,1.23,4.57,1.95,6.97,2.62,6.66,1.79,13.54,2.61,20.45,2.43,2.56-.1,5.18-.2,7.62-.95.75-.18,1.78-.86,1.91-1.1.81-4.38.6-9.13.58-13.62-.11-4.58-.25-9.17-.57-13.74h0ZM106.2,82.51c.49,6.87.75,13.75.75,20.64-.05,2.3,0,4.59-.48,6.89-.23.44-.63.74-1.02.97-8.83,3.7-28.7,1.56-37.25-2.71-.78-.46-1.6-.97-1.94-1.88-.09-1.78.21-3.48.46-5.19.82-5.07,1.92-10.08,3.06-15.09,1.33-6.72,3.61-13.26,6.98-19.26,1.51-2.6,3.24-6.58,5.08-8.92.79-1.4.93-3.24,1.13-4.84.25-1.74-.23-3.26-1.16-4.73-1.65-2.98-3.55-6.06-3.66-9.58.08-3.49,1.4-6.88,3.6-9.56,7.37-9.08,21.47-5.94,24.76,5.17,1.74,5.7.21,9.97-3.63,14.3,0,0-1.64,1.97-1.64,1.97-1.83,1.93-1.72,4.68-1.68,7.17-.06,1.76,1.12,3.15,1.57,4.79,1.98,6.54,4.43,13.01,5.08,19.86h0Z"/>
  </g>
</svg>