<?xml version="1.0" encoding="UTF-8"?>
<svg id="Layer_1" xmlns="http://www.w3.org/2000/svg" version="1.1" viewBox="0 0 750 500">
  <!-- Generator: Adobe Illustrator 29.1.0, SVG Export Plug-In . SVG Version: 2.1.0 Build 142)  -->
  <defs>
    <style>
      .st0 {
        fill: #e0e0e0;
      }

      .st1 {
        isolation: isolate;
      }

      .st1, .st2 {
        opacity: .4;
      }

      .st3 {
        fill: #dc8630;
      }

      .st4 {
        fill: #008ac0;
      }

      .st5 {
        fill: #ffbe9d;
      }

      .st6 {
        fill: #263238;
      }

      .st7 {
        fill: #32ac5c;
      }

      .st8 {
        fill: #eb996e;
      }

      .st9 {
        fill: #fff;
      }

      .st10 {
        fill: #fafafa;
      }

      .st11 {
        fill: #055373;
      }

      .st12 {
        opacity: .5;
      }

      .st13 {
        fill: #455a64;
      }
    </style>
  </defs>
  <g id="freepik--background-simple--inject-4" class="st12">
    <path class="st7" d="M637.85,111.33l-2.85-5.93c-21.84-45.68-66.72-76.45-117.29-79-6.91-.33-13.83-.13-20.71.6-47.16,4.89-90.93,35.11-112.22,77.48-12.52,24.91-18.4,54.5-39.14,73.13-27,24.26-68.1,20.78-104.06,15.87s-82.46-1.61-109.34,22.77c-16.84,15.26-29.55,41.76-32.35,67.65-8.26,76.3,30.8,109.73,81.62,141.93s128.75,36.56,188.67,31.06c83.94-7.7,166.86-44.41,221.17-108.87s76.2-157.81,46.5-236.69Z"/>
  </g>
  <g id="freepik--character-2--inject-4">
    <path class="st3" d="M667.57,381.67c-11.45-45.99-38.67-121.67-41.19-127.67-6.56-15.58-34.77-17.85-34.77-17.85l-38.43-6.41s-48.38,10.87-56,12.41c-.32.06-20.61,10.16-28.46,14.07h0c-.98.39-1.92.87-2.82,1.41l-.23.11h0c-5.55,3.31-17.09,12.69-20.95,34.88-3.58,20.54.53,77.6.53,77.6l-20.4-46.19-44.26,18.58,16.81,62c2.88,18.56,13.54,35,29.3,45.21,8.31,5.29,17.18,8.24,25.33,6.1l5.07-.81c5.36-1.41,10-6.23,14.06-12.45l1.79,17.6h158.89l-5.16-29.26c14.94-2.74,27-5.79,32.64-9.06,7.39-4.31,11.74-26.26,8.25-40.27Z"/>
    <path class="st13" d="M658.27,422.48l-.69.33-2,.91-3.47,1.28c-1.38.42-3,1-4.77,1.47-3.63,1-8.12,2.11-13.39,3.24s-11.34,2.22-18.09,3.33c-27,4.41-65.05,8.72-108.54,12.1h-.26v-.27c-.48-11.88-1-24.21-1.5-36.83-.14-3.34-.28-6.67-.41-9.94v-.22l.21-.05,93.39-20.75-.16.27c-6.72-24.52-12.06-44.9-15.66-59.17-1.8-7.13-3.14-12.75-4-16.57-.43-1.91-.76-3.37-1-4.37s-.31-1.51-.31-1.51c0,0,.14.51.38,1.49s.59,2.46,1,4.36c.94,3.81,2.31,9.41,4.15,16.54,3.67,14.25,9.08,34.61,15.84,59.11l.06.22-.23.05-93.36,20.84.2-.26c.13,3.27.27,6.6.41,9.94.51,12.62,1,25,1.49,36.83l-.27-.24c43.48-3.36,81.53-7.6,108.53-11.92,6.75-1.09,12.8-2.18,18.08-3.25s9.77-2.15,13.4-3.17c1.81-.49,3.4-1,4.78-1.42l3.43-1.22,2.06-.88.7-.27Z"/>
    <path class="st13" d="M594.4,245.92c.06.09-1.69,1.08-4.08,3.23l-.93.85-1,1c-.67.66-1.31,1.45-2,2.24-1.47,1.78-2.8,3.67-4,5.64-1.15,1.96-2.15,4.01-2.99,6.12-.7,1.75-1.25,3.55-1.66,5.38-.69,3.13-.63,5.15-.74,5.14-.05-.47-.05-.93,0-1.4,0-.55.03-1.1.11-1.65,0-.33.07-.67.11-1s.14-.74.21-1.14c.36-1.87.89-3.7,1.57-5.47.83-2.17,1.83-4.27,3-6.28,1.19-1.99,2.52-3.89,4-5.68.73-.79,1.38-1.58,2.08-2.23l1-1c.34-.28.66-.56,1-.83.55-.48,1.12-.93,1.72-1.35.43-.34.89-.65,1.37-.92.39-.26.8-.47,1.23-.65Z"/>
    <path class="st13" d="M632.76,392.75c-.4-.3-.78-.63-1.13-1-.34-.35-.77-.78-1.3-1.24s-1.09-1-1.78-1.58c-1.57-1.33-3.22-2.56-4.94-3.69-2.12-1.36-4.33-2.58-6.62-3.64-2.3-1.03-4.68-1.9-7.1-2.59-1.97-.56-3.97-1-6-1.3-.87-.16-1.67-.22-2.36-.31s-1.3-.14-1.79-.17c-.51,0-1.03-.06-1.53-.16.51-.05,1.03-.05,1.54,0,.6,0,1.21.02,1.81.08.7.06,1.5.09,2.38.23,2.06.26,4.1.67,6.11,1.2,4.93,1.34,9.6,3.47,13.85,6.3,1.73,1.16,3.38,2.44,4.93,3.82.68.57,1.23,1.15,1.74,1.64.44.41.85.85,1.24,1.31.35.34.67.71.95,1.1Z"/>
    <path class="st13" d="M472.92,456.1c-.03-.11-.06-.23-.07-.35,0-.26-.09-.61-.16-1-.13-.95-.32-2.29-.55-4-.48-3.48-1.12-8.51-1.88-14.74-1.53-12.45-3.46-29.67-5.52-48.7s-3.94-36.26-5.37-48.72c-.72-6.2-1.31-11.24-1.71-14.75-.2-1.72-.35-3.07-.46-4-.05-.43-.08-.78-.11-1-.01-.12-.01-.24,0-.36.04.11.06.23.07.35,0,.26.1.61.16,1,.13,1,.32,2.29.56,4,.47,3.48,1.11,8.51,1.87,14.74,1.53,12.45,3.46,29.67,5.53,48.71s3.93,36.25,5.37,48.71c.72,6.2,1.3,11.24,1.71,14.75.19,1.72.35,3.07.45,4l.11,1c.01.12.01.24,0,.36Z"/>
    <path class="st10" d="M584.89,325.45l-.32.07-.94.15-3.62.53c-1.57.23-3.5.49-5.74.77s-4.79.61-7.61.92c-11.29,1.31-26.93,2.71-44.21,4.12s-32.93,2.75-44.22,4c-2.83.29-5.38.59-7.62.84s-4.18.48-5.75.68l-3.63.44-1,.1c-.11.01-.22.01-.33,0,.1-.04.21-.06.32-.07l.94-.15,3.62-.54c1.57-.23,3.5-.49,5.74-.77s4.79-.61,7.62-.91c11.29-1.32,26.93-2.72,44.21-4.13s32.92-2.75,44.22-4c2.82-.28,5.38-.59,7.62-.84s4.17-.48,5.75-.68l3.63-.44,1-.1c.11-.01.21,0,.32.01Z"/>
    <path class="st10" d="M587.11,336.25l-.32.06-1,.14-3.67.46c-3.19.39-7.81.94-13.52,1.57-11.42,1.27-27.22,2.89-44.69,4.46s-33.3,2.81-44.77,3.6c-5.73.4-10.37.69-13.58.88l-3.7.19h-1c-.11.01-.22.01-.33,0,.11-.01.22-.01.33,0l1-.09,3.68-.3,13.57-1c11.46-.88,27.29-2.17,44.76-3.75,17.47-1.58,33.26-3.13,44.69-4.31l13.54-1.4,3.68-.37,1-.08c.11-.04.22-.06.33-.06Z"/>
    <path class="st10" d="M641.63,301.29c0,.14-12.92,3.3-28.92,7.06s-29,6.69-29,6.55,12.91-3.3,28.91-7.06,28.98-6.69,29.01-6.55Z"/>
    <path class="st10" d="M647.17,318.38h0s-.07.05-.11.06l-.43.14c-.38.11-.95.26-1.68.43-1.47.36-3.6.84-6.23,1.41-5.26,1.15-12.55,2.68-20.6,4.32s-15.36,3.08-20.65,4.1l-6.23,1.16-1.71.29c-.2.05-.4.08-.61.07.19-.08.39-.13.59-.17l1.69-.39,6.24-1.34,20.61-4.25,29.12-5.83Z"/>
    <path class="st10" d="M459.29,341.61c-.75.18-1.52.31-2.29.39l-5.47.73c-2.14.28-4.08.49-5.49.59-.76.12-1.54.12-2.3,0,.75-.16,1.5-.28,2.26-.35l5.47-.73c2.14-.28,4.08-.49,5.5-.59.77-.14,1.55-.15,2.32-.04Z"/>
    <path class="st10" d="M460,353.14c-2.56.63-5.16,1.08-7.78,1.35-2.6.45-5.22.73-7.85.84,2.54-.61,5.13-1.06,7.73-1.33,2.61-.46,5.25-.74,7.9-.86Z"/>
    <path class="st5" d="M423.75,325.35l-4.75-18.58s-13.18-41.23-13.94-45.36c-.88-4.76-3.39-5.48-5.13-5-2.7.69-4,4.43-3.38,8.54.22,1.42,4.55,23.7,4.55,23.7-1.69-1.87-3.5-3.61-5.44-5.22-4.08-3.56-12.27-4.51-20.17-2.77s-10,2.92-9.44,6c.26,1.18,1.04,2.17,2.12,2.71,2.06.95,4.35,1.26,6.59.9,15.31-2.59,16.39,3.49,16.39,3.49l.94,2.49s-9.1-4.15-14.82-.66c-.85.52-1.59,1.2-2.18,2-5.5,1.07-9.09,6.39-8.01,11.89.32,1.66,1.06,3.21,2.13,4.52,1.1,1.31,2.88,2.39,4.47,1.75.81-.42,1.5-1.03,2-1.79.3-.38.64-.73,1-1.05l2.7,6.57s6.85,14.43,9.12,21.05"/>
    <path class="st5" d="M419.8,324.5c-2.22,1.08-4.94-.19-6.59-2s-2.62-4.18-4.13-6.13c-4.52-5.82-13.12-7.4-17.36-13.44-.59-.84-1.05-2.06-.36-2.82s1.79-.45,2.69-.15l23.18,7.71"/>
    <path class="st8" d="M417.23,307.65c-.75-.47-1.57-.84-2.42-1.09-1.59-.62-3.9-1.46-6.77-2.48l-10.04-3.52-2.93-1c-.95-.24-2.08-1-3.64-.34-.74.41-1.15,1.22-1.05,2.06.08.67.33,1.31.71,1.87.69.99,1.49,1.9,2.38,2.71,3.61,3.23,7.81,4.91,11,7.16,1.55,1,2.94,2.23,4.13,3.65,1.07,1.34,1.86,2.81,2.73,4.09,1.63,2.66,4.07,4.18,5.85,4.33s2.69-.57,2.63-.59c-.83.18-1.69.2-2.53.06-2.24-.66-4.09-2.23-5.12-4.33-.79-1.27-1.53-2.78-2.65-4.27-1.22-1.55-2.67-2.9-4.31-4-3.33-2.39-7.49-4.13-10.82-7.14-.81-.73-1.53-1.55-2.16-2.44-.57-.84-.69-1.77-.18-2s1.59.06,2.58.39l2.94,1,10.17,3.23c2.91.9,5.27,1.61,6.91,2.07.83.31,1.7.5,2.59.58Z"/>
    <path class="st8" d="M392.08,296.24c-.44-1.49-1.21-2.86-2.26-4-1.21-1.15-2.75-1.88-4.41-2.09-2.06-.24-4.15-.16-6.18.25-2.11.43-4.25.64-6.4.63-1.81-.03-3.58-.54-5.13-1.47-1.07-.67-1.76-1.8-1.87-3.06-.06-.45,0-.9.2-1.31.08.42.13.84.15,1.26.21,1.09.9,2.04,1.87,2.58,1.48.78,3.13,1.18,4.8,1.17,2.1-.04,4.18-.28,6.24-.69,2.13-.42,4.31-.48,6.46-.18,1.81.27,3.48,1.14,4.73,2.47.82.9,1.4,1.98,1.7,3.16.14.41.18.85.1,1.28Z"/>
    <path class="st8" d="M396.32,263.32c.43,1.44.73,2.92.89,4.42.54,3.05,1.17,6.68,1.88,10.7l2,10.67c.38,1.46.62,2.95.73,4.45-.6-1.38-1.05-2.83-1.35-4.31-.7-2.7-1.53-6.46-2.3-10.65s-1.31-8-1.62-10.77c-.24-1.49-.32-3-.23-4.51Z"/>
    <path class="st8" d="M388,302.21c-.47-.03-.94-.12-1.39-.26-1.16-.36-2.42-.18-3.45.47-.62.5-.93,1.28-.81,2.07.12.97.37,1.93.74,2.84.48,1.14.52,2.42.12,3.59-.58,1.25-1.72,2.14-3.07,2.4-1.32.24-2.68-.07-3.77-.86-1-.69-1.78-1.67-2.22-2.8-.61-1.85-.95-3.77-1-5.72-.07-1.31.09-2.62.45-3.88.12-.48.36-.91.71-1.26.07.05-.18.48-.37,1.35-.22,1.24-.27,2.51-.15,3.76.13,1.86.5,3.7,1.11,5.46.71,1.77,2.83,3.52,5,3.07,1.06-.21,1.97-.9,2.45-1.87.33-.98.29-2.05-.11-3-.36-.99-.6-2.01-.7-3.06-.09-1.02.35-2.01,1.18-2.61,1.19-.72,2.65-.83,3.93-.3.91.31,1.35.55,1.35.61Z"/>
    <path class="st8" d="M376.59,311.71s.25.44.11,1.29c-.25,1.21-1.05,2.24-2.16,2.77-1.7.73-3.67.5-5.16-.6-1.75-1.33-2.93-3.29-3.28-5.46-.4-2.14-.12-4.34.8-6.31.76-1.59,1.93-2.95,3.39-3.94.96-.66,2.04-1.14,3.18-1.4.41-.14.84-.18,1.27-.11-1.45.46-2.82,1.14-4.08,2-2.96,2.22-4.39,5.93-3.67,9.56.3,1.97,1.32,3.75,2.87,5,1.26.97,2.93,1.23,4.42.69.99-.43,1.75-1.26,2.08-2.28.23-.74.15-1.2.23-1.21Z"/>
    <path class="st8" d="M394.73,323.76c.66-.33,1.41-.45,2.14-.36,1.89.05,3.7.74,5.16,1.94l-.71.36c-.08-1.02-.1-2.04-.06-3.06.23-6,2.69-10.31,2.87-10.17s-1.76,4.44-2,10.2v3l.06,1-.77-.66c-1.31-1.13-2.93-1.85-4.65-2.06-.68-.03-1.36-.09-2.04-.19Z"/>
    <path class="st8" d="M387.24,285.88c.23.06-.34,1.82-2.14,3s-3.63,1.09-3.61.85,1.55-.52,3.11-1.59,2.4-2.38,2.64-2.26Z"/>
    <path class="st8" d="M470.56,395.81c-.79-.17-24.16,2.54-24.16,2.54,0,0-16.4,6.65-14.4,9.59s5.29,5.87,9.18,4.05,10.38-4.31,12.19-4.12,12.26,4.93,12.26,4.93l8.15-4.4-3.22-12.59Z"/>
    <polygon class="st5" points="505.64 403.01 492.02 401.31 492.84 402.11 494.75 437.42 507.3 435.8 505.64 403.01"/>
    <path class="st5" d="M490.55,400.17c-.88-.57-21.21-7.7-26.65-9.6-.87-.3-1.81-.3-2.68,0-4.4,1.5-18.17,6.3-19.28,7.93-1.27,1.89-.35,5,3.5,5.2s14.4-.14,14.4-.14c0,0,3.05-.78,3.29.92s-2.37,5.23-2.37,5.23c0,0-28.76,20.29-31.04,22.77-1.59,1.73-.07,4.8,3,4.15,3.58-.77,33.52-16.3,33.52-16.3,0,0,2.53,1.57.38,2.95s-21.31,17.53-23.34,19.4c-1.87,1.72-.92,5.29,3.17,5.36s28.41-16.39,28.41-16.39c0,0,.87,6.35-1,9.23-1.15,1.78-5.12,7.22-7.56,11.72-1.52,2.73-.54,6.17,2.19,7.68.22.12.44.23.67.32h0l15-17.14,3.42-5.12s3.27,1.94,7.17-.9c3.71-2.7,6.33-6.65,7.36-11.13.89-4.13-4.02-21.21-11.56-26.14Z"/>
    <path class="st8" d="M502.14,419.89c-.12.07-2.62-4.11-5.57-9.33s-5.24-9.51-5.12-9.58,2.62,4.1,5.57,9.33,5.25,9.51,5.12,9.58Z"/>
    <path class="st8" d="M464.77,400.22c.27-1.23.36-2.49.27-3.75-.26-1.23-.69-2.42-1.29-3.53,0,0,.4.23.81.83,1.05,1.6,1.33,3.6.76,5.43-.23.68-.5,1.05-.55,1.02Z"/>
    <path class="st5" d="M526.61,278.93h0c-14.59.89-27.43-9.54-29.54-24l-3.65-24.76s-23.4-.1-27.14-22.92-7.72-75.9-7.72-75.9h0c24.74-15.35,56.95-25.14,82.44-11.03l2.69,11.12,9.25,117.2c1.22,15.49-10.34,29.03-25.83,30.26-.17.01-.33.02-.5.03Z"/>
    <path class="st8" d="M493.33,228.6s14.62-1,28.52-13c0,0-4.56,17.51-27.68,18.9l-.84-5.9Z"/>
    <path class="st5" d="M544.45,154.27c.36-.22,15-7,16.86,8.68s-14.31,14.34-14.31,13.89-2.55-22.57-2.55-22.57Z"/>
    <path class="st8" d="M551,170.32c.06,0,.3.16.78.32.67.19,1.38.11,2-.2,1.59-.81,2.67-3.61,2.41-6.45-.12-1.35-.54-2.65-1.23-3.82-.41-.96-1.27-1.66-2.3-1.86-.67-.09-1.32.31-1.53.95-.16.46,0,.76-.1.8s-.37-.23-.32-.89c.04-.4.22-.77.5-1.06.4-.38.92-.58,1.47-.58,1.34.11,2.53.9,3.14,2.1.83,1.28,1.34,2.74,1.47,4.26.28,3.18-1,6.33-3.18,7.26-.83.34-1.76.3-2.55-.12-.45-.33-.56-.67-.56-.71Z"/>
    <path class="st6" d="M470.08,168.32c.25,1.77,1.87,3.02,3.65,2.81,1.74-.12,3.05-1.62,2.93-3.36,0-.03,0-.06,0-.09-.25-1.77-1.86-3.02-3.64-2.82-1.74.12-3.06,1.63-2.94,3.37,0,.03,0,.06,0,.09Z"/>
    <path class="st6" d="M467.75,161.62c.47.36,2.67-1.84,6.18-2.37s6.35.85,6.67.36c.16-.22-.37-.92-1.62-1.57-1.68-.82-3.57-1.11-5.41-.81-1.83.26-3.53,1.11-4.84,2.41-.96.99-1.21,1.82-.98,1.98Z"/>
    <path class="st6" d="M504.22,163.17c.25,1.77,1.87,3.02,3.65,2.81,1.74-.12,3.05-1.64,2.93-3.38,0-.02,0-.05,0-.07-.26-1.77-1.87-3.02-3.65-2.82-1.74.12-3.05,1.64-2.93,3.38,0,.03,0,.06,0,.08Z"/>
    <path class="st6" d="M502.38,157.05c.47.36,2.67-1.84,6.18-2.36,3.51-.52,6.35.84,6.67.35.16-.21-.37-.92-1.62-1.57-1.68-.82-3.57-1.1-5.42-.81-1.83.27-3.52,1.12-4.84,2.41-.95.99-1.2,1.82-.97,1.98Z"/>
    <path class="st6" d="M493.57,185c0-.21-2.25-.25-5.86-.17-.91,0-1.79,0-2-.6-.22-.92-.15-1.88.2-2.75.51-2.29,1.04-4.7,1.61-7.23,2.22-10.28,3.67-18.68,3.26-18.76s-2.58,8.21-4.78,18.51c-.52,2.53-1,4.94-1.5,7.25-.18,1.07-.59,2.32.07,3.59.36.6.97,1.01,1.67,1.09.52.07,1.04.07,1.56,0,3.58-.38,5.79-.7,5.77-.93Z"/>
    <path class="st6" d="M500.66,140.11c.49.9,3.93-.08,8.13-.21,4.2-.13,7.7.5,8.11-.44.19-.45-.53-1.26-2-2-3.98-1.75-8.55-1.57-12.38.5-1.43.85-2.07,1.72-1.86,2.15Z"/>
    <path class="st6" d="M467.12,148.81c.74.71,3-.49,5.93-1s5.46-.27,5.9-1.19c.19-.45-.32-1.19-1.51-1.78-3.24-1.4-7.01-.71-9.54,1.75-.9,1-1.11,1.88-.78,2.22Z"/>
    <path class="st6" d="M445.24,117.37c-.75-2.83,0-5.85,2-8,2-2,5.64-2.45,7.84-.59-1.41-3.64.39-7.74,4.03-9.15.23-.09.46-.16.69-.23,3.7-.8,7.3,1.53,11.05,2s7.31-1,10.49-2.85,6.05-4.23,9.29-6c14.23-7.79,32.09-2.65,40,11.51,4.76-2.32,10.82-.64,14.55,3.13s5.35,9.21,5.53,14.5c.04,3.58-.32,7.15-1.07,10.65,0,.3.12.58.16.88,1.66,12.6,2.48,27.57-2.87,28.47-9.33,1.55-9.76-16.39-9.76-16.39-12.14-2.7-10.47-20.53-13.73-22.7s-10.18-7.32-32.34,8.58c-8.6,6.18-21,7.9-28,7.39h-.76c-.07-.01-.14-.03-.21-.05-2.26-.21-4.48-.78-6.56-1.68-2.44-.95-4.52-2.66-5.93-4.87-1.38-2.28-1.29-5.17.23-7.36-2.23-1.9-3.84-4.42-4.63-7.24Z"/>
    <path class="st8" d="M492.75,196.28c.7,1.35,1.59,2.59,2.64,3.69,1.07,1.1,2.57,1.69,4.1,1.61,1.63-.24,3.03-1.29,3.7-2.8.64-1.5.79-3.16.43-4.75-.29-1.43-1.21-3.05-2.67-3-.61.06-1.19.28-1.68.64l-7.08,4.2"/>
    <path class="st6" d="M496.17,202c0-.24,1.76.18,3.95-1.11,1.24-.71,2.18-1.86,2.62-3.22.5-1.66.26-3.46-.65-4.94-.23-.37-.51-.7-.82-1-.35-.27-.29-.26-.61-.17s-.76.44-1.14.66l-1.16.69c-1.51.9-2.89,1.69-4.05,2.34-2.33,1.29-3.82,2-3.92,1.86s1.21-1.18,3.41-2.68c1.1-.75,2.42-1.63,3.9-2.59l1.14-.73c.41-.24.72-.49,1.29-.77.35-.17.74-.22,1.12-.14.35.09.67.28.93.53.41.39.77.82,1.07,1.3,1.12,1.82,1.37,4.05.68,6.07-.59,1.62-1.79,2.94-3.36,3.67-1.01.5-2.13.72-3.25.63-.78-.09-1.17-.29-1.15-.4Z"/>
    <path class="st0" d="M524.86,125.34s12.58,3.37,17.64,2.1,8.17-5.78,8.17-5.78c-.08,3.86-.38,7.71-.91,11.53-6.7,3.72-14.54,4.82-22,3.1-1.22-3.58-2.19-7.24-2.9-10.95Z"/>
  </g>
  <g id="freepik--character-1--inject-4">
    <path class="st11" d="M258.93,347.27l-8.86,16.15s12.66-49.45-5.36-65.73l-.07-.06c-.53-.7-1.1-1.37-1.71-2-2.91-3-6.65-6.77-11.25-8.86h0c-.91-.41-1.84-.74-2.8-1l-53.46-1.92c-1.85.89-23.14,5.49-34.06,9.26h0c-.89.27-1.77.61-2.62,1-.93.36-1.84.79-2.7,1.3v.06c-5.83,3.18-15,10.25-20.4,24.75-4.9,12.98-25.79,64.78-30.19,85.87-3,14.4,3.75,29.07,16.64,36.15l-11.74,18.34h121.56l4.15-13.72c7.9.83,27.53,1.51,37.76-10.45,14.61-17.08,36-75.88,36-77.19l-30.89-11.95Z"/>
    <path class="st6" d="M236,392.74c-.13-.07,4.91-10.3,11.26-22.85s11.59-22.68,11.72-22.62-4.91,10.3-11.26,22.85-11.64,22.68-11.72,22.62Z"/>
    <path class="st6" d="M243.44,320.61c.03.12.04.25.05.37,0,.27,0,.63.08,1.09.05.95.2,2.37.21,4.19.11,5.15-.17,10.31-.84,15.42-1.01,7.58-2.52,15.08-4.53,22.45-1.1,4.17-2.35,8.51-3.71,13s-2.83,9.11-4.2,13.89c-2.75,9.55-5,18.75-7.13,27.1s-4,15.89-5.62,22.19-3.07,11.39-4.12,14.88c-.51,1.75-1,3.09-1.25,4-.14.43-.25.78-.34,1-.03.12-.07.24-.13.35.02-.12.04-.24.08-.36l.29-1.05,1.15-4c1-3.5,2.35-8.6,4-14.91s3.44-13.86,5.51-22.22,4.35-17.56,7.1-27.13c1.37-4.78,2.86-9.4,4.22-13.89s2.62-8.82,3.73-13c2.02-7.35,3.57-14.82,4.62-22.37.71-5.09,1.05-10.23,1-15.37,0-1.82-.08-3.23-.1-4.19v-1.09c-.03-.11-.06-.23-.07-.35Z"/>
    <path class="st6" d="M157.28,333.71c-.12,0,.17-2.11-.18-5.47-.06-.42-.11-.86-.17-1.31s-.18-.92-.27-1.41c-.2-1.03-.47-2.06-.79-3.06-.76-2.3-1.77-4.51-3-6.59-1.26-2.06-2.74-3.98-4.41-5.73-.8-.77-1.54-1.53-2.32-2.14-.39-.31-.74-.64-1.11-.91l-1.08-.76c-2.79-1.9-4.78-2.64-4.73-2.75.47.13.94.31,1.38.52.54.22,1.07.47,1.57.76.69.34,1.36.73,2,1.16l1.12.75c.38.26.75.59,1.14.89.81.61,1.57,1.37,2.4,2.14,1.71,1.76,3.22,3.71,4.5,5.8,1.25,2.12,2.26,4.37,3,6.72.31,1.02.57,2.07.76,3.12.08.49.19,1,.24,1.43s.09.91.13,1.34c.08.76.11,1.53.09,2.3.02.58,0,1.16-.07,1.73-.02.5-.08.99-.2,1.47Z"/>
    <path class="st6" d="M138.79,398.34c.01-.18.04-.36.1-.53.1-.4.23-.89.38-1.49.38-1.36.89-3.21,1.51-5.45,1.3-4.6,3.13-10.95,5.2-17.94s4-13.31,5.45-17.86c.72-2.28,1.33-4.12,1.78-5.38.22-.63.4-1.11.55-1.44.05-.13.11-.25.18-.36,0,0,.08-.1.08-.06v.05s-.05.07-.17.41l-.45,1.47c-.41,1.35-1,3.18-1.62,5.42-1.37,4.65-3.24,10.94-5.3,17.9s-4,13.25-5.34,17.89c-.69,2.23-1.26,4.06-1.67,5.41-.2.59-.35,1.07-.48,1.46-.05.17-.11.34-.2.5Z"/>
    <path class="st6" d="M139.26,397.69h.34l1-.09,4-.29,14.92-1,52.18-3.47h.22v.22c1.51,10.84,3.17,22.74,4.91,35.18v.22l-.22.06-7.14,2c-15.36,4.27-30.06,8.2-43.6,11-6.77,1.42-13.24,2.58-19.32,3.5s-11.76,1.67-17,2c-4.7.39-9.43.26-14.11-.38-3.54-.36-7.03-1.14-10.39-2.33-2.11-.81-4.06-1.97-5.78-3.44-.45-.37-.87-.77-1.27-1.2-.28-.29-.41-.44-.41-.44,0,0,.16.13.44.4.42.41.85.8,1.31,1.16,1.73,1.42,3.68,2.55,5.78,3.33,3.35,1.15,6.83,1.9,10.36,2.23,4.64.61,9.34.71,14,.3,5.2-.39,10.87-1.18,16.95-2.1s12.52-2.11,19.28-3.54c13.52-2.84,28.2-6.78,43.56-11.05l7.14-2-.19.29c-1.72-12.44-3.37-24.34-4.86-35.18l.25.21-52.19,3.27-14.93.9-4,.21-1,.05-.23-.02Z"/>
    <path class="st10" d="M146,371.55c-.08.08-.16.15-.26.2l-.78.54c-1.04.64-2.14,1.18-3.29,1.6-1.83.63-3.75.97-5.69,1-2.58.05-5.14-.45-7.51-1.49-2.86-1.3-5.34-3.3-7.21-5.82-2.18-2.87-3.6-6.24-4.14-9.8-.55-3.95,0-7.98,1.58-11.64,1.63-3.99,4.58-7.29,8.36-9.36,1.97-1.01,4.24-1.29,6.4-.78,2.12.64,3.72,2.4,4.15,4.58.4,2.01.29,4.09-.32,6.05-1.54,5.44-5.72,9.74-11.12,11.43-1.57.47-3.21.66-4.84.54-1.5-.13-2.97-.51-4.35-1.11-2.34-1.06-4.4-2.66-6-4.68-1.23-1.49-2.2-3.18-2.86-5-.24-.65-.44-1.32-.6-2-.1-.61-.22-1.11-.26-1.53l-.07-.95c0-.11,0-.21,0-.32.18,1.62.56,3.22,1.13,4.75.69,1.79,1.66,3.45,2.89,4.92,1.62,1.96,3.67,3.51,6,4.53,1.35.55,2.78.89,4.23,1,1.58.1,3.17-.09,4.68-.56,5.23-1.67,9.28-5.85,10.77-11.14.58-1.88.68-3.87.3-5.8-.39-1.99-1.85-3.61-3.79-4.2-2.03-.47-4.15-.2-6,.75-.96.44-1.84,1.02-2.64,1.71-.81.67-1.56,1.4-2.24,2.19-3.87,4.59-5.62,10.61-4.81,16.56.51,3.48,1.89,6.78,4,9.6,1.81,2.47,4.22,4.45,7,5.75,2.31,1.04,4.82,1.56,7.35,1.54,1.91-.02,3.81-.34,5.63-.94,1.15-.4,2.26-.9,3.31-1.5l.8-.49c.06-.05.13-.09.2-.13Z"/>
    <path class="st10" d="M241.74,336.89l-.46.41c-.45.41-.92.79-1.42,1.14-1.92,1.35-4.06,2.34-6.33,2.93-3.61.93-7.39.95-11,.05-2.26-.55-4.4-1.49-6.34-2.77l-.78-.51-.73-.6-.75-.6c-.24-.21-.45-.46-.68-.69-.96-.93-1.81-1.97-2.52-3.11-1.6-2.43-2.37-5.31-2.19-8.21.29-3.2,2.17-6.05,5-7.57,1.51-.75,3.24-.95,4.88-.57,1.68.41,3.21,1.28,4.42,2.51,1.26,1.25,2.19,2.79,2.71,4.48.49,1.74.64,3.56.43,5.35-.53,3.69-1.89,7.22-3.98,10.31-2.08,3.26-4.72,6.14-7.78,8.5-3.17,2.45-6.76,4.33-10.58,5.54-1.96.6-3.97,1.02-6,1.25-2.07.22-4.15.22-6.22,0-4.15-.41-8.07-2.06-11.27-4.73-1.53-1.34-2.82-2.94-3.79-4.73-.98-1.75-1.61-3.67-1.88-5.66-.26-1.96-.08-3.96.54-5.84.63-1.84,1.7-3.5,3.11-4.84,2.68-2.73,6.52-3.98,10.3-3.36,1.79.37,3.44,1.25,4.74,2.53,1.25,1.25,2.21,2.76,2.79,4.43,1.1,3.19,1.1,6.66,0,9.85-1.1,2.94-3.06,5.48-5.62,7.3-2.32,1.69-4.93,2.95-7.7,3.71-2.5.71-5.07,1.12-7.67,1.22-2.31.12-4.63-.02-6.91-.44-1.99-.37-3.9-1.04-5.68-2-1.49-.83-2.81-1.92-3.91-3.22-1.55-1.78-2.54-3.99-2.84-6.33-.06-.61-.06-1.21,0-1.82.05-.41.08-.61.08-.61v.62c-.03.6,0,1.2.07,1.8.34,2.31,1.34,4.46,2.88,6.21,1.1,1.27,2.41,2.33,3.88,3.13,1.76.93,3.65,1.59,5.61,1.94,4.81.8,9.74.51,14.43-.84,2.72-.76,5.28-2.01,7.55-3.68,2.49-1.78,4.39-4.26,5.46-7.12,1.05-3.1,1.02-6.46-.07-9.55-.56-1.6-1.48-3.05-2.68-4.25-1.25-1.22-2.81-2.05-4.52-2.4-3.62-.59-7.29.63-9.85,3.25-2.74,2.63-4.03,6.43-3.47,10.19.25,1.93.87,3.79,1.82,5.49.95,1.73,2.19,3.29,3.68,4.59,3.12,2.6,6.96,4.21,11,4.61,2.03.22,4.07.22,6.1,0,5.96-.65,11.61-2.97,16.32-6.68,3.03-2.32,5.63-5.15,7.68-8.36,2.04-3.02,3.37-6.48,3.88-10.09.2-1.73.07-3.49-.4-5.17-.5-1.62-1.39-3.09-2.59-4.28-1.14-1.18-2.6-2.01-4.19-2.4-1.54-.37-3.17-.19-4.59.51-2.7,1.46-4.49,4.17-4.77,7.23-.19,2.83.55,5.63,2.11,8,.69,1.12,1.51,2.15,2.45,3.07.22.22.43.46.67.67l.72.6.72.59.76.5c1.91,1.27,4.02,2.21,6.24,2.77,3.57.9,7.31.9,10.88,0,2.25-.56,4.39-1.51,6.32-2.81.68-.43,1.11-.86,1.45-1.1l.48-.34Z"/>
    <path class="st10" d="M235.94,366.61c-.06.13-.13.25-.22.37-.17.26-.41.61-.7,1.06s-.72,1-1.23,1.66c-.26.32-.52.67-.82,1l-1,1.13c-6.91,7.59-16.39,12.36-26.6,13.39-1.12.07-2.25.17-3.41.18-1.18,0-2.36-.06-3.53-.18-2.46-.24-4.86-.9-7.1-1.95-2.38-1.11-4.39-2.9-5.76-5.14-1.41-2.37-1.95-5.16-1.51-7.89.25-1.4.85-2.72,1.74-3.83.91-1.13,2.12-1.98,3.49-2.46,2.81-.94,5.89-.67,8.49.76,1.31.69,2.45,1.67,3.33,2.86.85,1.18,1.47,2.51,1.83,3.92.67,2.76.53,5.65-.4,8.33-.89,2.58-2.39,4.91-4.38,6.78-1.89,1.78-4.04,3.26-6.38,4.37-2.22,1.07-4.54,1.89-6.94,2.45-1.15.3-2.32.47-3.46.69s-2.27.3-3.39.34c-4.15.23-8.31-.15-12.35-1.14-3.33-.82-6.55-2.03-9.59-3.61-1.24-.66-2.44-1.38-3.6-2.16-.99-.64-1.94-1.34-2.85-2.09-.86-.63-1.51-1.32-2.13-1.86-.51-.46-1-.94-1.45-1.46l-.86-.93c-.1-.1-.2-.21-.28-.33l.32.29.89.9c.47.5.97.97,1.49,1.42.63.52,1.28,1.2,2.15,1.81.92.72,1.87,1.39,2.86,2,1.16.76,2.37,1.47,3.6,2.11,3.03,1.54,6.23,2.71,9.53,3.51,4.01.98,8.15,1.37,12.28,1.14,1.11,0,2.22-.24,3.36-.35s2.27-.4,3.41-.69c2.36-.57,4.65-1.38,6.84-2.44,2.29-1.1,4.4-2.55,6.24-4.3,1.93-1.81,3.39-4.07,4.25-6.58.88-2.58,1.01-5.35.38-8-.64-2.75-2.42-5.1-4.9-6.45-2.47-1.36-5.4-1.62-8.08-.74-1.28.46-2.4,1.25-3.26,2.3-.84,1.04-1.4,2.28-1.63,3.6-.43,2.61.08,5.28,1.43,7.55,1.32,2.16,3.25,3.89,5.55,4.95,2.18,1.04,4.53,1.69,6.93,1.93,1.16.12,2.32.18,3.48.17,1.14,0,2.26-.09,3.37-.16,10.13-.99,19.55-5.65,26.49-13.1l1-1.1c.31-.36.58-.71.84-1,.45-.52.87-1.07,1.26-1.63l.75-1,.23-.4Z"/>
    <path class="st10" d="M101.1,442.83c-.27-.31-.51-.64-.71-1-.55-1.05-.89-2.2-1-3.38-.17-1.88.1-3.77.8-5.52.97-2.29,2.32-4.4,4-6.23,1.95-2.28,4.1-4.37,6.44-6.24,2.69-2.19,5.83-3.77,9.19-4.62,1.83-.44,3.72-.57,5.59-.39,1.97.16,3.88.8,5.55,1.87,1.78,1.14,2.95,3.01,3.19,5.11.11,1.08-.13,2.17-.68,3.11-.57.92-1.37,1.68-2.33,2.2-1.91.96-4.09,1.25-6.18.81-2-.33-3.94-.93-5.79-1.76-3.61-1.61-6.76-4.3-8.16-7.76-.68-1.67-.99-3.46-.91-5.26.09-1.69.46-3.35,1.1-4.91,1.13-2.82,3.07-5.26,5.56-7,2.06-1.4,4.37-2.39,6.8-2.9,1.83-.39,3.7-.56,5.57-.51,1.59.02,3.17.22,4.71.61h-.31l-.9-.14c-1.16-.15-2.33-.23-3.5-.25-1.85-.01-3.7.19-5.5.6-2.39.53-4.65,1.52-6.66,2.91-2.42,1.71-4.28,4.09-5.37,6.85-.6,1.52-.94,3.13-1,4.77-.07,1.73.23,3.46.89,5.06,1.36,3.31,4.4,5.9,7.93,7.47,1.78.79,3.66,1.35,5.58,1.67,1.98.42,4.03.15,5.84-.75.88-.47,1.61-1.16,2.14-2,.49-.84.71-1.82.61-2.79-.22-1.95-1.33-3.7-3-4.73-1.6-1.02-3.42-1.65-5.31-1.81-1.82-.18-3.65-.05-5.43.37-3.29.82-6.36,2.35-9,4.49-2.33,1.84-4.48,3.9-6.43,6.14-1.67,1.79-3.02,3.85-4,6.1-.71,1.7-1,3.55-.86,5.39.09,1.17.4,2.3.92,3.35.38.72.65,1.05.62,1.07Z"/>
    <path class="st10" d="M198.88,393.88c.03.08.05.16.06.25,0,.2.06.45.11.76.07.41.11.82.11,1.23.04.57.04,1.13,0,1.7-.12,3.62-1.15,7.16-3,10.28-1.25,2.17-2.87,4.1-4.79,5.71-2.2,1.88-4.78,3.24-7.57,4-6.46,1.74-13.37.48-18.8-3.43-.42-.34-.86-.67-1.27-1l-1.17-1.09-.1-.09v-.14c.08-.49.16-1,.23-1.43v-.13l.12-.06c2.83-1.47,6.09-1.91,9.21-1.24,2.89.57,5.5,2.11,7.41,4.36,1.7,2.02,2.78,4.48,3.14,7.1.32,2.26.03,4.57-.83,6.68-1.26,3.04-3.57,5.52-6.51,7-.78.4-1.6.71-2.45.93l-.66.14c-.08.01-.15.01-.23,0,1.13-.31,2.22-.74,3.26-1.27,2.85-1.53,5.06-4,6.27-7,.81-2.06,1.06-4.3.74-6.49-.36-2.53-1.43-4.91-3.08-6.86-1.85-2.16-4.37-3.63-7.16-4.17-3.01-.64-6.14-.21-8.87,1.21l.14-.19c-.08.47-.16.95-.23,1.43l-.07-.22,1.14,1.06c.4.34.82.66,1.24,1,5.32,3.8,12.06,5.03,18.38,3.37,2.72-.73,5.25-2.04,7.41-3.85,1.89-1.57,3.5-3.45,4.75-5.57,1.85-3.06,2.93-6.53,3.13-10.1.03-.56.03-1.12,0-1.68,0-.41-.02-.82-.06-1.23l-.06-.76c0-.07.03-.14.06-.21Z"/>
    <path class="st10" d="M178.27,295.66s.09.12.21.36c.17.36.3.74.4,1.13.62,2.48.04,5.1-1.55,7.1-.76.92-1.71,1.66-2.8,2.16-1.2.55-2.5.82-3.82.79-1.41-.04-2.79-.45-4-1.19-1.17-.73-2.29-1.51-3.38-2.35-.99-.76-2.1-1.35-3.29-1.73-2.06-.51-4.25,0-5.87,1.38-1.13.89-1.96,2.09-2.39,3.46-.28,1-.24,1.56-.31,1.55-.01-.14-.01-.27,0-.41,0-.4.05-.8.14-1.19.37-1.45,1.2-2.75,2.36-3.7.79-.66,1.7-1.16,2.69-1.47,1.14-.36,2.37-.39,3.53-.09,2.49.66,4.45,2.72,6.81,4.1,2.24,1.34,5,1.5,7.37.41,1.95-.87,3.43-2.52,4.08-4.55.45-1.36.54-2.81.27-4.22-.24-1-.5-1.52-.45-1.54Z"/>
    <path class="st10" d="M127,392.21c-.48-.3-.93-.63-1.36-1-.86-.63-2.13-1.52-3.76-2.5-4.2-2.64-9-4.21-13.95-4.56-2.72-.11-5.43.29-8,1.17-2.1.72-4.06,1.79-5.8,3.18-1.56,1.32-2.91,2.87-4,4.59,0,0,0-.15.17-.4.19-.37.39-.73.62-1.07.82-1.28,1.83-2.42,3-3.4,1.74-1.46,3.73-2.59,5.87-3.35,2.62-.93,5.4-1.36,8.18-1.24,5.04.35,9.91,1.99,14.13,4.76,1.28.81,2.51,1.69,3.68,2.66.42.33.73.62.94.81s.28.33.28.35Z"/>
    <path class="st10" d="M157.6,336.3c-.59-.01-1.17-.07-1.75-.18-.67-.08-1.34-.2-2-.36-.89-.17-1.77-.39-2.64-.66l-1.52-.46c-.53-.16-1.06-.39-1.61-.59-1.13-.4-2.27-1-3.48-1.52-2.59-1.32-5.04-2.88-7.33-4.67-2.26-1.83-4.33-3.87-6.19-6.1-.82-1.06-1.63-2.05-2.26-3.06-.33-.49-.67-1-.94-1.43l-.79-1.38c-.45-.79-.86-1.6-1.23-2.43-.31-.61-.58-1.24-.81-1.89-.22-.54-.41-1.09-.56-1.66.29.51.54,1.04.75,1.58.22.52.5,1.14.88,1.84s.75,1.53,1.29,2.38l.81,1.34c.28.47.63.92,1,1.41.64,1,1.45,2,2.27,3,3.69,4.41,8.23,8.04,13.36,10.65,1.2.57,2.32,1.14,3.42,1.54.55.22,1.07.45,1.59.63l1.49.48c1,.34,1.84.52,2.61.73.66.19,1.33.33,2,.44.55.09,1.1.21,1.64.37Z"/>
    <path class="st10" d="M218,440.15c-.17.02-.34.02-.51,0l-1.48-.07c-.64,0-1.42-.08-2.33-.06s-1.94,0-3.08.08l-1.79.11c-.62,0-1.26.15-1.92.23-1.34.13-2.74.43-4.23.7-3.19.71-6.32,1.69-9.35,2.93-3.01,1.29-5.9,2.83-8.64,4.62-1.24.86-2.44,1.66-3.47,2.52-.52.42-1,.8-1.51,1.22l-1.33,1.19c-.88.74-1.57,1.51-2.22,2.15s-1.17,1.21-1.59,1.7l-1,1.1c-.11.13-.24.25-.37.36,0,0,.08-.16.29-.43s.54-.7.91-1.16c.47-.62.98-1.21,1.53-1.77.63-.66,1.31-1.46,2.17-2.22l1.33-1.23c.46-.42,1-.82,1.51-1.25,1-.88,2.22-1.7,3.46-2.58,2.76-1.83,5.67-3.4,8.71-4.7,3.06-1.25,6.22-2.23,9.45-2.92,1.5-.26,2.92-.55,4.27-.66.68-.07,1.32-.17,1.95-.2l1.81-.08c1.15-.08,2.19,0,3.1,0s1.7.08,2.34.15l1.47.17c.18,0,.35.04.52.1Z"/>
    <path class="st10" d="M254.56,433.36c-.21.18-.43.35-.66.49-.44.29-1.09.73-2,1.25-2.44,1.51-5.11,2.64-7.9,3.33-1.95.46-3.96.59-5.95.36-2.3-.24-4.5-1.06-6.4-2.39-2.1-1.51-3.56-3.76-4.08-6.3-.29-1.33-.29-2.72,0-4.05.33-1.38,1.02-2.65,2-3.68,3.07-3.18,8.13-3.27,11.31-.2.84.82,1.5,1.81,1.92,2.91.77,2.22.67,4.64-.27,6.79-.76,1.86-1.94,3.53-3.46,4.85-2.21,1.84-4.72,3.28-7.42,4.28-.95.38-1.68.65-2.19.83-.25.1-.51.18-.77.24.23-.14.48-.25.73-.34l2.15-.91c2.64-1.06,5.09-2.54,7.26-4.38,1.45-1.3,2.58-2.92,3.3-4.73.88-2.05.96-4.35.23-6.46-1.51-3.86-5.87-5.77-9.73-4.26-.99.39-1.89.98-2.63,1.74-.92.95-1.56,2.14-1.85,3.43-.27,1.26-.27,2.57,0,3.83.5,2.41,1.87,4.55,3.86,6,1.83,1.29,3.96,2.1,6.18,2.35,1.94.24,3.9.14,5.81-.29,2.76-.66,5.42-1.72,7.88-3.14.89-.49,1.56-.9,2-1.17.22-.15.44-.27.68-.38Z"/>
    <path class="st10" d="M260.48,374.74c-.66-.34-1.24-.8-1.73-1.36-2.53-2.57-4.04-5.96-4.24-9.56-.09-.74-.04-1.48.14-2.2.13,2.46.67,4.87,1.59,7.15,1.08,2.21,2.51,4.23,4.24,5.97Z"/>
    <path class="st10" d="M253.55,315.83c.04.79-.03,1.59-.22,2.36-.35,1.9-1.09,3.7-2.18,5.3-.62.87-1.39,1.63-2.27,2.25-.71.5-1.5.89-2.32,1.16-.55.19-1.12.32-1.7.4-.21.04-.43.04-.64,0,0-.1.88-.24,2.21-.76,1.72-.69,3.22-1.86,4.3-3.37,1.04-1.55,1.8-3.27,2.24-5.08.14-.77.34-1.52.58-2.26Z"/>
    <path class="st10" d="M237,322.91c-.27-.27-.5-.57-.69-.9-.58-.88-1.07-1.81-1.46-2.78-2.73-6.56-1.44-14.11,3.31-19.4.69-.79,1.46-1.5,2.29-2.14.3-.26.64-.46,1-.62-1.05.95-2.05,1.95-3,3-4.45,5.27-5.69,12.55-3.24,19,.53,1.31,1.13,2.59,1.79,3.84Z"/>
    <path class="st10" d="M251.7,357c-.3.6-.7,1.13-1.2,1.57-1.13,1.14-2.47,2.05-3.95,2.68-1.48.62-3.06.96-4.66,1-.67.06-1.35-.01-2-.21,4.47.04,8.75-1.78,11.81-5.04Z"/>
    <path class="st10" d="M148.74,458.42c-.06.05-.81-.9-2.13-2.31-1.72-1.84-3.62-3.52-5.66-5-2.05-1.46-4.24-2.73-6.54-3.77-1.77-.81-2.91-1.21-2.88-1.29.28.02.56.08.83.18.74.22,1.47.47,2.19.77,4.76,1.92,8.99,4.96,12.33,8.86.64.75,1.12,1.38,1.43,1.83s.46.71.43.73Z"/>
    <path class="st5" d="M258.93,350.9l25.27-51.35s29.1-13.17,31.57-11.32,16.05,14.2,16.05,14.2h0c-2.96,2.22-7,2.32-10.07.27l-6.9-4.6-8.46,4,10.2,5.79,10.6,15.5s-5.25,2.47-6.79,1.24.92,2.73.92,2.73c0,0-5.86,2.7-8.25-.37,0,0-4.09,2.58-7.48-1.75l-3.4-4.32-6.48,6.48-9.37,32-27.41-8.5Z"/>
    <path class="st8" d="M313.07,312.4c2.59,3.83,4.89,7.84,6.9,12-1.37-1.86-2.6-3.83-3.68-5.88-1.22-1.96-2.29-4.01-3.22-6.12Z"/>
    <path class="st5" d="M288.13,305.72c10.08,1.33,19.98,3.74,29.55,7.18-.26,1.36-1.11,2.54-2.32,3.21-2.19.7-3.35.55-7-.29-1.6-.31-3.18-.7-4.73-1.18-.86,2.95-2.52,5.6-4.8,7.67-2.38,1.92-5.9,2.67-8.54,1.15"/>
    <path class="st8" d="M290.31,323.46s.42.21,1.24.45c1.2.31,2.45.31,3.65,0,1.86-.45,3.54-1.46,4.8-2.91,1.57-1.89,2.75-4.07,3.48-6.42l.08-.22.22.07c1.03.34,2.08.61,3.14.81l3.38.74c1.15.29,2.33.38,3.51.26.58-.08,1.15-.23,1.7-.45.5-.33.93-.75,1.26-1.25.37-.47.61-1.03.7-1.63l.17.24c-6.76-2.45-13.7-4.39-20.76-5.8-2.69-.55-4.86-.94-6.37-1.19l-1.73-.3c-.2-.02-.41-.07-.6-.13.21-.03.41-.03.62,0,.4,0,1,.1,1.74.2,1.52.19,3.71.53,6.41,1,7.1,1.3,14.08,3.2,20.87,5.67l.18.06v.18c-.08.71-.36,1.37-.8,1.93-.37.56-.86,1.03-1.42,1.4-.6.26-1.24.43-1.89.51-1.23.12-2.48.03-3.68-.27l-3.39-.76c-1.08-.22-2.14-.5-3.18-.84l.29-.15c-.76,2.4-2,4.62-3.63,6.53-1.31,1.5-3.06,2.55-5,3-1.24.29-2.54.23-3.75-.16-.44-.12-.86-.32-1.24-.57Z"/>
    <path class="st8" d="M307.28,315.57c2.5,3.31,4.28,7.11,5.2,11.16-.14,0-1-2.57-2.48-5.64s-2.85-5.44-2.72-5.52Z"/>
    <path class="st6" d="M285.47,239.1c-5.22-6.26-11.6-12.67-11.83-20.82-.11-4.33,1.46-9.19-1.13-12.66-2.26-3-6.75-3.5-9.29-6.29-3.39-3.72-1.93-9.6-3.09-14.49-1.26-5.33-5.83-9.44-11-11.33s-10.78-1.85-16.22-1.22l-5.1,112.19c2.49-2.72,9-3.87,12.41-2.55s6.69,3.44,10.36,3.74c8.26.68,14.07-7.58,21.13-11.91,6.73-4.14,16-5.46,19.69-12.45,3.84-7.2-.71-15.95-5.93-22.21Z"/>
    <path class="st5" d="M252.94,205.53c-.66-14.61-16.13-29.47-30.71-28.19l-47.33,8.14v7.85l1.19,97.31h0s2.48,24,29,22.71c23.81-1.18,24-18.93,24-18.93l-.25-13.7s18.7-2.77,23-27c2.09-12.1,1.83-31.95,1.1-48.19Z"/>
    <path class="st13" d="M270,274.61c.97-.22,1.9-.6,2.75-1.13.95-.64,1.71-1.55,2.17-2.6.57-1.4.6-2.96.07-4.38-.53-1.63-2-2.78-3.74-3.9-.95-.58-1.79-1.32-2.5-2.18-.74-1-1.11-2.23-1.05-3.47.14-2.53,1.44-4.72,2.27-7,.46-1.13.71-2.34.75-3.56-.02-1.24-.39-2.44-1.07-3.48-1.39-2.14-3.55-3.66-5.57-5.14-2.06-1.35-3.94-2.96-5.61-4.77-2.76-3.18-4.62-7.04-5.38-11.18-.53-2.76-.53-5.6,0-8.36.13-.75.33-1.48.59-2.2.06-.26.16-.51.3-.73.11,0-.25,1.06-.5,3-.89,6.82,1.19,13.69,5.72,18.86,1.64,1.74,3.48,3.28,5.49,4.58,2,1.48,4.29,3,5.85,5.41.78,1.19,1.2,2.58,1.22,4-.04,1.35-.32,2.67-.83,3.92-.89,2.4-2.14,4.55-2.26,6.73-.07,1.03.22,2.05.83,2.89.64.79,1.41,1.46,2.27,2,.85.56,1.65,1.19,2.39,1.88,1.92,1.93,2.44,4.85,1.31,7.32-.54,1.13-1.4,2.07-2.48,2.71-.66.4-1.4.66-2.16.78-.27.07-.56.07-.83,0Z"/>
    <path class="st6" d="M245.43,222.4c-.02,1.69-1.38,3.06-3.07,3.09-1.65.1-3.07-1.17-3.17-2.82,0-.02,0-.03,0-.05.02-1.69,1.37-3.06,3.06-3.1,1.65-.1,3.08,1.16,3.18,2.81,0,.02,0,.05,0,.07Z"/>
    <path class="st6" d="M248.45,215.78c-.4.4-2.73-1.39-6.09-1.44s-5.85,1.58-6.2,1.16c-.18-.18.23-.91,1.32-1.67,1.48-.99,3.22-1.49,5-1.44,1.75.03,3.44.61,4.84,1.66.99.81,1.32,1.55,1.13,1.73Z"/>
    <path class="st6" d="M214.59,221.52c-.01,1.69-1.37,3.06-3.06,3.09-1.65.1-3.07-1.17-3.17-2.82,0-.02,0-.03,0-.05.01-1.69,1.37-3.06,3.06-3.09,1.65-.1,3.07,1.17,3.17,2.82,0,.02,0,.03,0,.05Z"/>
    <path class="st6" d="M215.43,215.82c-.4.4-2.73-1.39-6.09-1.44s-5.85,1.58-6.2,1.16c-.18-.18.22-.91,1.32-1.67,1.48-.99,3.22-1.49,5-1.44,1.75.03,3.44.61,4.84,1.66.98.81,1.32,1.55,1.13,1.73Z"/>
    <path class="st6" d="M227.17,240.94c0-.19,2.09-.52,5.48-.89.85-.07,1.67-.23,1.82-.81.09-.88-.09-1.77-.52-2.55-.77-2.09-1.57-4.28-2.42-6.58-3.36-9.36-5.77-17.05-5.4-17.18s3.41,7.35,6.77,16.71c.8,2.31,1.58,4.51,2.31,6.61.52,1.04.65,2.24.38,3.37-.26.61-.79,1.06-1.43,1.23-.48.12-.97.18-1.46.18-3.4.12-5.52.1-5.53-.09Z"/>
    <path class="st8" d="M228.79,280.72c-11.46-.03-22.69-3.24-32.44-9.27,0,0,8.15,17,32.55,15.15l-.11-5.88Z"/>
    <path class="st6" d="M217.25,243.09c.55,0,.49,3.62,3.56,6.26s7,2.31,7,2.82c.05.23-.87.7-2.52.71-2.14,0-4.2-.76-5.83-2.15-1.56-1.33-2.55-3.21-2.75-5.25-.13-1.48.29-2.42.54-2.39Z"/>
    <path class="st6" d="M216.52,202.68c-.36,1.21-3.7.58-7.65,1.14s-7.16,1.93-7.67.83c-.22-.52.35-1.65,1.66-2.81,1.62-1.39,3.61-2.27,5.72-2.53,2.04-.3,4.11.05,5.94,1,1.48.83,2.15,1.8,2,2.37Z"/>
    <path class="st6" d="M247.36,204.83c-.61,1.11-2.91-.09-5.69-.2s-5.15.66-5.67-.52c-.23-.57.16-1.69,1.21-2.73,1.24-1.21,2.93-1.85,4.66-1.76,1.75.14,3.37.98,4.49,2.34.97,1.17,1.27,2.33,1,2.87Z"/>
    <path class="st4" d="M187.3,214.15c8-9.81,19.49-28.18,30.59-33.05,1.77-.78,14.52-1.35,15.61-1.35,2.43.99,4.69,2.36,6.7,4.06,5.91,5.17,10.6,17.34,12.87,24.85,3.28-9.36,2.22-22.79-4.29-30.28s-13.41-11.62-23.31-12.12-17.35,1.73-25.79,6.93c-3.35,2.06-15.41,12.09-18.78,17.86l6.4,23.1Z"/>
    <path class="st6" d="M229.9,166.76c1.64.18-9.4-8.87-16.29-10.11-6.96-1.21-14.11.29-20,4.19-3.94,2.64-7.22,6.31-11.58,8.17-3.32,1.41-7,1.65-10.47,2.67-9.35,2.96-16.01,11.24-16.89,21-.3,4,.44,8.08.5,12.13s-.68,8.37-3.42,11.35c-2.38,2.59-5.87,3.77-8.84,5.64-7.16,4.67-10.95,13.08-9.7,21.54.72,4.42,2.82,9,1.29,13.19-1,2.77-3.42,4.77-5,7.23-3.23,5.1-3.02,11.66.53,16.55,4.12.45,7.37,3.54,10.57,6.17s7.3,5.06,11.28,3.89c5.16-1.51,7.61-8.41,12.93-9.17s9,4.79,13.95,6.66c5.62,2.12,12.19-1.08,15.59-6s4.22-11.22,4.34-17.23c.15-7.55-.81-15.52-5.28-21.61-3.21-4.36-8.3-8.1-8.37-13.51-.07-5.19,4.65-9.3,5.45-14.42.69-4.5-1.72-8.81-3.6-13s-5.32-10.28-2.69-14c-.07-.03,17.87-24.42,45.7-21.33Z"/>
    <path class="st6" d="M281.62,220.31c0,.06-.3-.08-.83-.05-.78.08-1.48.49-1.92,1.14-.8.94-.8,2.31,0,3.25,1.1,1.18,2.82,1.55,4.3.92,1.74-.92,2.87-2.68,3-4.64.1-2.31-.32-4.61-1.25-6.72-.86-2.26-2.08-4.7-4.25-6.06-1.11-.65-2.41-.92-3.69-.77-1.38.19-2.75.49-4.08.91-1.42.46-2.91.66-4.4.59-1.53-.14-2.94-.88-3.92-2.07-1.63-2.26-2.29-5.07-1.83-7.82.28-2.54.86-4.84.89-7,.03-2.01-.37-4.01-1.17-5.86-1.16-2.72-3.06-5.06-5.49-6.75-1.73-1.17-2.86-1.54-2.82-1.63s.29,0,.83.22c.77.29,1.51.65,2.21,1.08,2.6,1.63,4.67,3.99,5.93,6.79.89,1.93,1.36,4.03,1.37,6.16,0,2.3-.57,4.66-.8,7.1-.41,2.49.19,5.04,1.66,7.09.81.98,1.98,1.59,3.25,1.7,1.36.05,2.71-.15,4-.57,1.39-.43,2.82-.74,4.26-.93,1.5-.17,3.01.16,4.3.93,2.51,1.61,3.73,4.24,4.61,6.58.95,2.24,1.37,4.67,1.22,7.1-.21,2.24-1.56,4.21-3.58,5.2-1.76.7-3.77.2-5-1.24-.49-.6-.71-1.38-.62-2.15.09-.63.36-1.22.77-1.7.53-.69,1.36-1.1,2.23-1.1.3.01.58.12.82.3Z"/>
    <path class="st6" d="M132.24,228.25c1.43-1.42,3.08-2.59,4.89-3.48,2.61-1.22,5.36-2.11,8.19-2.64,1.01-.27,2.05-.44,3.1-.5-.98.37-1.98.66-3,.88-2.75.68-5.41,1.65-7.95,2.9-1.71.89-3.27,2.05-4.62,3.43-1.54,1.56-2.63,3.51-3.17,5.63-.47,2.4-.5,4.86-.1,7.27.45,2.67.71,5.36.77,8.07.05,2.82-.89,5.58-2.66,7.78-.89,1.05-2.06,1.82-3.37,2.23-1.27.37-2.62.37-3.89,0-1.24-.34-2.31-1.13-3-2.22-.6-1.02-.9-2.2-.85-3.39.01-2.1.84-4.11,2.3-5.61,1.3-1.29,3.3-1.53,4.87-.59.64.38,1.09,1.01,1.25,1.74.19,1.39-.79,2.67-2.18,2.86-.11.01-.21.02-.32.02-.29-.01-.56-.13-.76-.34,0-.05.27.14.77.14.74-.06,1.4-.48,1.75-1.13.27-.43.37-.95.27-1.45-.16-.58-.55-1.07-1.08-1.36-1.35-.75-3.03-.48-4.08.64-1.28,1.39-2,3.21-2,5.1-.03,1.02.24,2.02.76,2.89.59.88,1.48,1.52,2.51,1.79,2.3.63,4.75-.15,6.25-2,1.59-2.03,2.44-4.56,2.39-7.14-.06-2.66-.31-5.31-.74-7.93"/>
    <path class="st6" d="M189.53,159.51c-.05,0-.11-.28-.32-.77-.34-.7-.92-1.25-1.63-1.55-1.14-.47-2.4-.54-3.58-.19-1.57.36-2.76,1.63-3,3.22-.63,3.47,3.39,7.85,8.17,7,2.48-.42,4.79-1.53,6.66-3.21,2.03-1.85,3.85-3.92,5.44-6.16,1.62-2.31,3.51-4.41,5.63-6.28,2.02-1.8,4.54-2.95,7.22-3.31,2.47-.22,4.95.42,7,1.81,1.75,1.17,3.23,2.7,4.34,4.49,1.52,2.59,2.52,5.46,2.95,8.43.17,1,.26,1.85.31,2.41.05.28.05.56,0,.84-.29-1.04-.53-2.1-.71-3.17-.56-2.87-1.64-5.62-3.17-8.12-1.09-1.67-2.52-3.09-4.19-4.17-1.89-1.24-4.15-1.8-6.41-1.59-2.48.37-4.8,1.46-6.67,3.14-2.05,1.84-3.88,3.9-5.47,6.14-1.63,2.3-3.51,4.42-5.6,6.31-2.02,1.79-4.51,2.96-7.18,3.38-2.49.37-5.02-.45-6.82-2.21-1.65-1.47-2.46-3.66-2.18-5.85.15-.96.62-1.84,1.34-2.5.63-.57,1.4-.96,2.23-1.15,1.3-.33,2.68-.19,3.88.41.76.37,1.36,1.02,1.65,1.82.09.27.13.55.11.83Z"/>
    <path class="st13" d="M219.53,166.2c-.08-.12-.14-.25-.17-.39-.12-.38-.29-.74-.52-1.07-.9-1.25-2.17-2.17-3.64-2.64-2.31-.78-4.75-1.12-7.19-1-1.51.03-3.02.26-4.47.68-1.59.58-3.07,1.44-4.36,2.53-3.06,2.46-5.67,5.42-7.72,8.77-.55.91-1.02,1.86-1.41,2.85-.39,1.11-1,2.14-1.8,3-1.7,1.75-3.82,3.02-6.16,3.7-1.18.33-2.39.57-3.61.73-1.18.26-2.32.64-3.41,1.16-2.26,1.05-4.2,2.68-5.63,4.73-1.44,2.13-2.17,4.68-2.06,7.25.12,2.71.45,5.4,1,8.06.57,2.74.7,5.55.37,8.33-.45,2.76-1.85,5.27-3.95,7.11-4,3.64-9.08,5.11-12.61,8.23-1.8,1.4-3.18,3.27-4,5.4-.63,2.03-.44,4.22.53,6.11.86,1.91,2.06,3.6,2.89,5.47.91,1.78,1.21,3.81.86,5.78-.54,1.74-1.68,3.24-3.22,4.22-1.28.84-2.49,1.76-3.65,2.76-1.72,1.72-2.55,4.15-2.23,6.57.15,1.54.45,3.06.89,4.55.17.52.31,1.04.4,1.58-.07-.12-.13-.24-.18-.37-.1-.26-.24-.64-.42-1.15-.52-1.47-.87-3-1.06-4.55-.13-1.15-.07-2.31.18-3.43.31-1.36,1.01-2.59,2-3.57,1.16-1.04,2.38-2,3.66-2.88,1.39-.91,2.42-2.28,2.91-3.87.29-1.81-.02-3.67-.88-5.29-.8-1.76-2-3.45-2.94-5.44-1.07-2.08-1.29-4.5-.61-6.74.84-2.29,2.29-4.31,4.2-5.83,3.72-3.28,8.78-4.8,12.55-8.26,1.93-1.7,3.2-4.03,3.58-6.57.3-2.67.18-5.37-.37-8-.56-2.71-.89-5.46-1-8.23-.09-2.78.7-5.52,2.25-7.82,1.53-2.16,3.6-3.88,6-5,1.16-.55,2.38-.96,3.64-1.22,1.19-.15,2.37-.38,3.53-.69,2.19-.62,4.18-1.79,5.78-3.41.73-.78,1.29-1.71,1.63-2.72.42-1.04.92-2.04,1.5-3,2.13-3.41,4.83-6.42,8-8.9,1.37-1.12,2.93-1.99,4.6-2.57,1.51-.42,3.08-.64,4.65-.64,2.51-.07,5.01.34,7.36,1.22,1.51.53,2.81,1.56,3.67,2.91.22.35.37.74.44,1.15.08.12.15.26.2.4Z"/>
    <path class="st6" d="M211.32,185.38c1.82-1.27,4.5-.54,6.54.36s3.92,2.22,6.1,2.64c2.24.35,4.52-.03,6.53-1.08,1.99-1.05,3.86-2.32,5.58-3.77.56-.44,1.18-1,1.15-1.71,0-.88-1-1.32-1.85-1.64-8.07-3.16-17.74-.66-24.05,5.2"/>
    <path class="st8" d="M206.7,235.27c-.11.1-.31.06-.46-.09s-.18-.35-.08-.45.3-.07.45.08.19.36.09.46Z"/>
    <path class="st8" d="M212.05,235.61c-.14,0-.23-.34-.2-.72s.17-.69.31-.68.24.33.21.72-.17.69-.32.68Z"/>
    <path class="st8" d="M217.11,234.53c-.14,0-.23-.22-.2-.46s.17-.42.31-.4.23.22.2.46-.17.42-.31.4Z"/>
    <path class="st8" d="M210,240.68c-.12.08-.36-.08-.54-.34s-.22-.55-.1-.63.36.07.53.34.22.55.11.63Z"/>
    <path class="st8" d="M214.42,239.37c-.14,0-.2-.25-.14-.49s.22-.4.36-.37.2.26.14.49-.22.41-.36.37Z"/>
    <path class="st8" d="M244.22,235.71c-.14,0-.31-.19-.5-.45s-.33-.5-.25-.62.43,0,.68.32.21.73.07.75Z"/>
    <path class="st8" d="M247.77,235.71c-.13-.05-.12-.39,0-.74s.38-.6.51-.55.12.39,0,.75-.37.6-.51.54Z"/>
    <path class="st8" d="M251.33,236.36c-.14-.05-.15-.34,0-.64s.32-.49.46-.44.14.34,0,.64-.33.49-.46.44Z"/>
    <path class="st8" d="M245.21,241.41c-.12.08-.34,0-.48-.23s-.18-.44-.06-.53.33,0,.48.23.17.44.06.53Z"/>
    <path class="st8" d="M248.74,240.45c-.14,0-.23-.21-.2-.42s.17-.36.31-.34.23.21.2.42-.16.36-.31.34Z"/>
    <path class="st8" d="M229.62,237.44c-.14,0-.24-.31-.21-.67s.16-.64.31-.62.24.3.21.66-.17.64-.31.63Z"/>
    <path class="st8" d="M238.3,235.29c-.13.04-.27-.03-.31-.16-.02-.13.07-.25.2-.27.12-.05.26.02.31.14,0,0,0,0,0,0,.02.13-.07.25-.2.28Z"/>
    <path class="st8" d="M227.78,232.16c-.14,0-.3-.13-.36-.37s0-.46.15-.49.3.13.36.37,0,.45-.15.49Z"/>
    <path class="st8" d="M221.63,236.57c-.14,0-.23-.24-.2-.51s.16-.47.31-.45.23.24.2.51-.17.47-.31.45Z"/>
    <ellipse class="st8" cx="227.39" cy="223.4" rx=".49" ry=".26" transform="translate(-19.75 424.73) rotate(-83.66)"/>
    <path class="st5" d="M303.3,369.47c-.43.07-21.11-4.68-21.11-4.68,0,0,7.93-4.49,9-5.14,4-2.43,2.46-7.15,2.46-7.15l-12.21,3.92-15.14,11.4-13.59,15.48-40.65,10.41,4.22,30.46,46-15.37s14.11-2.64,14.84-2.87c1.3-.41,7.12-3.42,10.3-5.08,1.8-.91,3.16-2.49,3.79-4.4,1.07-3.42-1.09-4.67-1.09-4.67,5-5.61,1.12-9.47,1.12-9.47,6.09-4.66,2.32-7.48,2.32-7.48,0,0,6.79.12,8.75-1.42,1.13-.97,1.53-2.55.99-3.94Z"/>
    <path class="st8" d="M252.71,383.3c.07-.1.14-.19.22-.28l.67-.81c.62-.72,1.51-1.75,2.64-3.08l9.92-11.43h0l15.11-11.44s.05,0,.07,0l12.2-3.94h0c.12-.04.25.03.29.15,0,0,0,0,0,0h0c.44,1.48.41,3.05-.09,4.51-.28.75-.72,1.43-1.27,2-.57.54-1.22,1-1.92,1.36l-8.23,4.66-.07-.48,10.42,2.37,5.38,1.2,2.66.59,1.29.32,1.23.24h.12c.07.01.14.07.16.14.44,1.16.29,2.47-.4,3.5-.35.49-.83.88-1.39,1.13-.53.23-1.08.41-1.65.53-2.17.4-4.37.58-6.57.53l.15-.44c.66.54,1.09,1.31,1.22,2.15.1.82-.07,1.64-.47,2.36-.78,1.32-1.83,2.47-3.08,3.36v-.36c1.25,1.43,1.75,3.37,1.34,5.23-.4,1.71-1.26,3.29-2.47,4.56l-.05-.34c.62.44,1.08,1.07,1.3,1.8.2.7.23,1.43.1,2.14-.22,1.35-.83,2.62-1.74,3.64-.87.94-1.93,1.7-3.1,2.22l-3.11,1.61c-2.06,1-4,2-5.81,2.8-.46.21-.94.35-1.43.42l-1.37.27-2.56.49-7.51,1.37-2,.34c-.45.07-.68.09-.68.09,0,0,.22-.07.67-.16l2-.4,7.5-1.49,2.55-.51,1.36-.29c.47-.07.93-.21,1.37-.41,1.8-.8,3.72-1.79,5.76-2.84l3.16-1.64c1.14-.5,2.16-1.24,3-2.16.86-.97,1.42-2.16,1.63-3.44.11-.65.08-1.31-.1-1.94-.21-.61-.6-1.13-1.13-1.5h0c-.1-.06-.13-.2-.07-.3h0c1.15-1.22,1.96-2.73,2.36-4.36.35-1.71-.1-3.48-1.24-4.8h0c-.09-.09-.09-.25,0-.34h0c1.19-.85,2.19-1.94,2.93-3.2.35-.63.49-1.35.41-2.07-.1-.71-.46-1.36-1-1.83h0c-.1-.09-.1-.24-.01-.34,0,0,0,0,.01-.01.05-.06.12-.09.19-.09,2.16,0,4.31-.22,6.42-.66,1.06-.13,2.04-.65,2.74-1.46.58-.89.71-2,.33-3l.28.16-.42-.05-.33-.06-.66-.14-1.33-.28-2.66-.58-5.39-1.2-10.43-2.39c-.14-.03-.22-.16-.2-.29.02-.08.07-.14.14-.18l8.26-4.72c.67-.34,1.28-.77,1.82-1.29.51-.51.9-1.13,1.16-1.8.46-1.35.5-2.82.1-4.19l.3.16-12.22,3.9h.07l-15.17,11.41h0l-10,11.32c-1.16,1.3-2.07,2.32-2.71,3-.29.33-.53.59-.71.78s-.25.21-.26.2Z"/>
    <path class="st8" d="M291.21,382.31c-1.66.54-3.4.75-5.14.61.8-.35,1.66-.55,2.54-.57.86-.18,1.74-.19,2.6-.04Z"/>
    <path class="st8" d="M293.73,374.83c-1.33.09-2.67.07-4-.07-1.35,0-2.69-.14-4-.43,1.34-.22,2.7-.25,4.05-.09,1.34-.02,2.67.18,3.95.59Z"/>
    <path class="st8" d="M290.32,391.67c.06.13-.71.6-1.72,1.05s-1.88.72-1.94.58.72-.6,1.73-1.05,1.87-.71,1.93-.58Z"/>
    <path class="st6" d="M243.78,408c.16,2.06-1.38,3.87-3.45,4.03-2.06.16-3.87-1.38-4.03-3.45-.16-2.06,1.38-3.87,3.45-4.03,0,0,.02,0,.03,0,2.06-.15,3.85,1.39,4,3.45Z"/>
    <path class="st6" d="M255.16,414c.17,2.07-1.37,3.89-3.44,4.06s-3.89-1.37-4.06-3.44,1.37-3.89,3.44-4.06c.02,0,.04,0,.06,0,2.05-.14,3.84,1.39,4,3.44Z"/>
    <path class="st6" d="M241,400.56c.17,2.06-1.37,3.87-3.44,4.04-2.06.17-3.87-1.37-4.04-3.44s1.37-3.87,3.44-4.04c.01,0,.03,0,.04,0,2.05-.14,3.83,1.39,4,3.44Z"/>
    <circle class="st6" cx="237.17" cy="393.41" r="3.75"/>
    <path class="st6" d="M243.08,385.83c.16,2.06-1.38,3.87-3.45,4.03-2.06.16-3.87-1.38-4.03-3.45-.16-2.06,1.38-3.87,3.45-4.03,0,0,.02,0,.03,0,2.05-.13,3.83,1.4,4,3.45Z"/>
    <path class="st6" d="M247.67,414.64c.16,2.06-1.38,3.87-3.45,4.03-2.06.16-3.87-1.38-4.03-3.45-.16-2.06,1.38-3.87,3.45-4.03,0,0,.02,0,.03,0,2.06-.15,3.85,1.39,4,3.45Z"/>
  </g>
  <g id="freepik--Game--inject-4">
    <rect class="st6" x="306.06" y="397.65" width="16.64" height="16.64"/>
    <rect class="st13" x="296.9" y="397.65" width="16.64" height="16.64"/>
    <path class="st6" d="M312.8,409c-.18.06-.37.09-.56.1-.36,0-.88.12-1.52.23-1.66.3-3.29.77-4.86,1.4-1.56.64-3.06,1.44-4.46,2.38-.54.36-1,.66-1.26.88-.15.12-.3.23-.47.33.12-.15.26-.28.42-.39.27-.24.69-.57,1.22-.95,1.4-.98,2.9-1.8,4.48-2.44,1.58-.64,3.23-1.1,4.91-1.36.65-.09,1.17-.15,1.54-.16l.56-.02Z"/>
    <path class="st6" d="M313.54,412.55s-.31-.11-.81-.22c-.66-.15-1.36-.12-2,.1-.87.35-1.62.96-2.12,1.76.06-.28.2-.54.39-.75.43-.56,1.01-.98,1.67-1.21.65-.21,1.34-.23,2-.05.31.06.61.18.87.37Z"/>
    <path class="st13" d="M322.84,403.13c-.14.02-.29.02-.43,0-.39.03-.77.03-1.16,0-1.28-.12-2.53-.46-3.69-1-1.17-.55-2.22-1.33-3.09-2.28-.26-.28-.5-.59-.72-.91-.15-.23-.23-.37-.21-.37s.36.49,1,1.18c.89.9,1.93,1.65,3.07,2.19,1.14.55,2.36.91,3.61,1.08,1.01.09,1.62.07,1.62.11Z"/>
    <path class="st13" d="M322.84,407.89s-.48-.25-1.26-.66c-1.01-.52-2.05-.97-3.12-1.34-1.08-.36-2.18-.64-3.3-.84-.86-.15-1.4-.21-1.4-.24s.14,0,.39,0,.6.05,1,.1c2.28.31,4.47,1.06,6.47,2.2.38.22.68.41.88.55.12.06.24.14.34.23Z"/>
    <path class="st13" d="M322.86,412.77c-.13.07-.28.12-.42.16-.4.11-.81.17-1.23.18-1.38.05-2.74-.39-3.84-1.23-1.31-1-1.79-2.47-2.5-3.19-.36-.42-.83-.74-1.35-.92.15,0,.3.04.44.1.38.17.72.41,1,.72.77.74,1.26,2.18,2.52,3.12,1.07.81,2.37,1.25,3.71,1.26.56-.02,1.12-.09,1.67-.2Z"/>
    <path class="st6" d="M314.1,404.09l-.15.13-.44.34c-.39.29-1,.69-1.72,1.14-1.97,1.12-4.01,2.1-6.12,2.92l-6.28,2.56-1.91.75-.52.2-.19.05c.05-.04.11-.07.17-.09l.51-.23,1.89-.82,6.25-2.61c2.1-.83,4.15-1.78,6.13-2.86.75-.43,1.34-.81,1.74-1.07.2-.15.42-.29.64-.41Z"/>
    <path class="st6" d="M307.56,401.62c-.42.37-.88.69-1.37.95-1.33.76-2.81,1.19-4.34,1.25-.5.03-1.01.02-1.51-.05-.56-.04-1.1-.26-1.53-.63-.49-.42-.63-1.12-.33-1.69.38-.52.91-.9,1.53-1.08,2.59-.97,5.34-1.44,8.1-1.39.73,0,1.46.06,2.18.17.36.06.7.2,1,.4.33.23.52.6.52,1-.07.71-.43,1.37-1,1.8-.48.44-.99.85-1.51,1.24-1.8,1.35-3.81,2.41-5.94,3.14-1.43.49-2.91.83-4.42,1-.55.07-1.1.11-1.66.12.14-.02.29-.04.43-.05.28,0,.69-.07,1.22-.15,1.49-.21,2.96-.57,4.38-1.07,2.11-.75,4.09-1.82,5.88-3.16.5-.38,1-.79,1.49-1.23.51-.4.85-1,.92-1.65,0-.67-.7-1.07-1.37-1.17-.71-.1-1.42-.15-2.14-.16-2.73-.05-5.44.41-8,1.36-.58.16-1.08.52-1.44,1-.26.5-.14,1.11.29,1.48.4.34.9.55,1.43.59.49.06.99.09,1.49.07,1.51-.06,2.98-.47,4.31-1.18.35-.19.68-.41,1-.64.12-.1.25-.19.39-.27Z"/>
    <rect class="st6" x="359.38" y="397.65" width="16.64" height="16.64"/>
    <rect class="st13" x="350.21" y="397.65" width="16.64" height="16.64"/>
    <path class="st6" d="M364.47,397.91h-.59c-.54.02-1.06.16-1.55.39-1.27.54-2.56,2-4.47,3-1.61.84-3.37,1.36-5.18,1.51-.55.04-1.09.04-1.64,0-.2,0-.4-.03-.59-.07.2-.02.4-.02.6,0,.54,0,1.08-.03,1.62-.09,1.78-.2,3.51-.73,5.09-1.56,1.87-.94,3.18-2.42,4.51-2.94.5-.23,1.05-.35,1.61-.34.2,0,.4.03.59.1Z"/>
    <path class="st6" d="M366.12,409c-.18.05-.37.09-.56.1-.36,0-.88.12-1.52.23-1.66.3-3.29.77-4.86,1.4-1.57.64-3.06,1.44-4.47,2.38-.54.36-1,.66-1.26.88-.14.12-.3.23-.46.33.12-.15.26-.28.41-.39.28-.24.7-.57,1.23-.95,1.39-.98,2.89-1.8,4.47-2.44,1.58-.64,3.23-1.1,4.92-1.36.51-.08,1.02-.13,1.53-.16l.57-.02Z"/>
    <path class="st6" d="M366.85,412.55s-.3-.11-.8-.22c-.65-.14-1.32-.11-1.95.1-.88.35-1.62.97-2.13,1.76.07-.28.21-.54.4-.75.42-.56,1-.98,1.66-1.21.67-.22,1.38-.24,2.06-.05.28.07.54.19.76.37Z"/>
    <path class="st13" d="M376.15,403.13c-.14.02-.28.02-.42,0-.39.03-.78.03-1.17,0-1.28-.12-2.53-.46-3.69-1-1.16-.56-2.21-1.33-3.09-2.28-.26-.28-.5-.59-.72-.91-.08-.12-.15-.24-.21-.37,0,0,.36.49,1,1.18.92.9,1.98,1.62,3.15,2.15,1.14.55,2.36.91,3.62,1.08.92.13,1.53.11,1.53.15Z"/>
    <path class="st13" d="M376.15,407.89c-.43-.2-.85-.42-1.25-.66-1.01-.52-2.06-.97-3.13-1.34-1.08-.36-2.18-.64-3.3-.84-.86-.15-1.39-.21-1.39-.24s.14,0,.38,0,.6.05,1,.1c2.28.31,4.47,1.06,6.47,2.2.38.22.68.41.88.55.12.06.24.14.34.23Z"/>
    <path class="st13" d="M376.18,412.77c-.14.07-.28.12-.43.16-.4.11-.81.17-1.22.18-1.38.05-2.74-.39-3.84-1.23-1.32-1-1.79-2.47-2.5-3.19-.36-.42-.83-.73-1.35-.92.15,0,.3.04.44.1.38.17.72.41,1,.72.77.74,1.27,2.18,2.52,3.12,1.07.81,2.37,1.25,3.71,1.26.56-.02,1.12-.09,1.67-.2Z"/>
    <rect class="st11" x="298.94" y="289.56" width="63.23" height="14.69"/>
    <rect class="st11" x="362.16" y="289.56" width="11.37" height="14.69"/>
    <rect class="st1" x="362.16" y="289.56" width="11.37" height="14.69"/>
    <g class="st2">
      <path class="st9" d="M332.78,289.82l-.34.09-1,.23c-.84.21-2.05.53-3.53,1-2.95.92-6.93,2.58-11.55,3.69-3.94.94-7.96,1.49-12,1.64-1.55.06-2.81,0-3.68,0l-1-.05c-.11.01-.23.01-.34,0h1.34c.87,0,2.12,0,3.67-.07,4.04-.18,8.06-.75,12-1.7,4.59-1.1,8.57-2.73,11.55-3.62,1.48-.46,2.7-.77,3.55-.95s1.33-.26,1.33-.26Z"/>
    </g>
    <g class="st2">
      <path class="st9" d="M331.58,299.79l-.71-.09c-.47-.05-1.16-.13-2.05-.18-1.08-.06-2.17-.06-3.25,0-.64,0-1.31.1-2,.19-.35.03-.7.14-1,.32-.28.14-.4.48-.26.76.02.05.05.09.09.13.31.25.68.42,1.07.48l1.24.31c.85.19,1.74.37,2.67.5,1.99.29,3.99.41,6,.35,1.05,0,2.13-.12,3.22-.25.55-.07,1.1-.15,1.65-.25.55-.06,1.07-.3,1.47-.68.34-.43.34-1.05,0-1.48-.35-.45-.85-.76-1.41-.88-1.14-.29-2.32-.54-3.52-.75-9.64-1.66-18.55-.56-24.86.25-3.17.43-5.72.84-7.49,1.12l-2,.32-.71.1.7-.14,2-.36c1.76-.3,4.31-.74,7.48-1.19,6.31-.84,15.23-2,24.92-.31,1.2.22,2.38.46,3.54.76.61.15,1.14.5,1.52,1,.4.51.4,1.23,0,1.74-.43.41-.99.67-1.58.74-.56.1-1.11.18-1.66.25-1.1.13-2.19.21-3.25.24-2.01.05-4.01-.07-6-.37-.93-.14-1.82-.32-2.67-.52-.43-.09-.85-.2-1.25-.31-.42-.07-.81-.25-1.13-.53-.16-.16-.23-.39-.18-.61.05-.21.19-.39.37-.5.33-.19.7-.3,1.08-.33.72-.09,1.4-.15,2-.18,1.09-.07,2.17-.07,3.26,0,.91.06,1.81.17,2.7.35Z"/>
    </g>
    <g class="st2">
      <path class="st9" d="M360.44,290.33c-.66.83-1.44,1.55-2.33,2.14-4.32,3.04-10.07,3.11-14.47.18-.9-.57-1.7-1.28-2.38-2.09.22.18.43.37.63.57.57.52,1.18.98,1.83,1.39,4.37,2.81,10,2.74,14.31-.17.64-.42,1.25-.91,1.8-1.44.39-.37.59-.59.61-.58Z"/>
    </g>
    <g class="st2">
      <path class="st9" d="M361.34,297.84h-2.94c-2.37.14-4.7.59-6.95,1.34-2.24.76-4.37,1.82-6.33,3.14-.75.51-1.34.95-1.73,1.27l-.47.37c-.1.08-.16.12-.17.11l.15-.14.43-.4c.54-.47,1.11-.92,1.7-1.33,3.93-2.76,8.57-4.32,13.36-4.5.72-.04,1.45-.04,2.17,0h.58c.14.12.21.13.2.14Z"/>
    </g>
    <path class="st11" d="M373.3,293.63h-.37c-.34-.02-.67-.06-1-.13-1.07-.19-2.11-.52-3.09-1-.97-.5-1.87-1.13-2.67-1.87-.24-.23-.47-.47-.68-.72-.09-.09-.16-.18-.22-.29,0,0,.38.35,1,.9,1.63,1.41,3.58,2.4,5.69,2.87.83.15,1.34.21,1.34.24Z"/>
    <path class="st11" d="M373.1,298.65c-.5-.42-1.03-.82-1.57-1.18-1.37-.79-2.8-1.46-4.28-2-1.49-.62-2.82-1.56-3.91-2.74-.33-.35-.64-.74-.91-1.14-.11-.14-.2-.29-.27-.45,0,0,.44.62,1.28,1.49,1.11,1.13,2.43,2.03,3.89,2.64,1.49.56,2.93,1.27,4.28,2.11.4.27.78.57,1.13.91.13.11.25.23.36.36Z"/>
    <path class="st11" d="M371.23,304.24c-.3-.49-.63-.95-1-1.38-.91-1.01-1.98-1.85-3.17-2.49-1.38-.8-2.73-1.35-3.61-1.92-.35-.22-.69-.46-1-.73-.12-.1-.23-.2-.33-.32,0,0,.51.4,1.41.92s2.25,1.06,3.64,1.86c1.21.66,2.29,1.53,3.18,2.59.27.32.49.68.68,1.05.09.13.16.27.2.42Z"/>
    <rect class="st11" x="298.84" y="320.79" width="63.23" height="14.69"/>
    <rect class="st11" x="362.06" y="320.79" width="11.37" height="14.69"/>
    <rect class="st1" x="362.06" y="320.79" width="11.37" height="14.69"/>
    <g class="st2">
      <path class="st9" d="M332.68,321.05l-.34.09-1,.23c-.84.21-2.05.53-3.53,1-2.95.92-6.92,2.58-11.54,3.69-3.94.94-7.96,1.49-12,1.64-1.55.06-2.81,0-3.68,0h-1.35,1.35c.86,0,2.12,0,3.66-.07,4.04-.18,8.06-.75,12-1.7,4.6-1.09,8.57-2.73,11.55-3.62,1.48-.46,2.7-.77,3.55-.95s1.33-.31,1.33-.31Z"/>
    </g>
    <g class="st2">
      <path class="st9" d="M331.48,331l-.71-.09c-.47-.05-1.16-.13-2-.18-1.08-.06-2.17-.06-3.25,0-.63,0-1.31.1-2,.19-.35.03-.7.14-1,.32-.28.14-.39.49-.24.77.02.04.05.09.08.12.3.25.67.42,1.06.48l1.24.31c.85.19,1.74.37,2.67.5,1.99.29,3.99.41,6,.35,1.05,0,2.13-.11,3.23-.25.54-.07,1.1-.15,1.65-.25.54-.07,1.06-.3,1.46-.67.35-.44.35-1.05,0-1.49-.36-.45-.86-.76-1.42-.88-1.13-.29-2.32-.54-3.52-.75-9.64-1.66-18.55-.56-24.86.25-3.16.43-5.72.84-7.48,1.12l-2,.32-.71.1.71-.14,2-.36c1.77-.3,4.32-.74,7.48-1.19,6.31-.84,15.23-2,24.92-.31,1.2.22,2.38.46,3.54.76.61.15,1.15.5,1.53,1,.4.51.4,1.23,0,1.74-.43.41-.99.67-1.58.74-.57.1-1.12.18-1.67.25-1.1.13-2.19.21-3.24.24-2.01.05-4.01-.07-6-.37-.94-.14-1.83-.32-2.68-.51-.43-.1-.84-.21-1.25-.32-.42-.07-.81-.25-1.13-.53-.15-.16-.22-.39-.18-.61.05-.21.19-.38.37-.49.33-.2.7-.31,1.08-.34.72-.09,1.4-.15,2-.18,1.09-.06,2.18-.06,3.27,0,.88.06,1.76.18,2.63.35Z"/>
    </g>
    <g class="st2">
      <path class="st9" d="M360.34,321.56c-.66.83-1.45,1.55-2.34,2.14-4.33,3.04-10.08,3.11-14.48.18-.89-.57-1.69-1.27-2.37-2.09,0,0,.22.21.62.57.57.51,1.18.98,1.83,1.39,4.37,2.81,10,2.74,14.31-.17.64-.42,1.25-.91,1.8-1.44.41-.37.62-.59.63-.58Z"/>
    </g>
    <g class="st2">
      <path class="st9" d="M361.25,329.07h-2.95c-4.76.27-9.36,1.83-13.3,4.51-.75.51-1.34.95-1.73,1.28-.16.12-.32.24-.46.36l-.17.11s0-.05.14-.14l.44-.4c.54-.48,1.11-.92,1.7-1.33,3.93-2.75,8.58-4.3,13.38-4.46.72-.04,1.44-.04,2.16,0h.58l.21.07Z"/>
    </g>
    <path class="st11" d="M373.2,324.86h-.36c-.34-.02-.67-.06-1-.13-2.16-.39-4.16-1.39-5.76-2.9-.24-.23-.47-.47-.69-.72-.09-.09-.16-.18-.22-.29,0,0,.38.35,1,.9.82.7,1.71,1.3,2.67,1.79.95.48,1.96.84,3,1.08.85.18,1.36.24,1.36.27Z"/>
    <path class="st11" d="M373,329.88c-.5-.42-1.03-.82-1.57-1.18-1.36-.79-2.8-1.46-4.28-2-1.48-.62-2.82-1.56-3.91-2.74-.33-.36-.63-.73-.9-1.13-.11-.14-.2-.3-.28-.46,0,0,.44.62,1.29,1.49,1.1,1.13,2.42,2.03,3.88,2.64,1.49.56,2.93,1.27,4.28,2.11.4.27.78.57,1.13.91.13.11.25.23.36.36Z"/>
    <path class="st11" d="M371.14,335.47c-.3-.48-.63-.94-1-1.38-.9-1-1.96-1.85-3.14-2.49-1.37-.8-2.72-1.35-3.61-1.92-.35-.22-.69-.46-1-.73-.12-.1-.23-.21-.33-.32,0,0,.52.4,1.42.92s2.24,1.06,3.63,1.87c1.22.65,2.3,1.53,3.19,2.58.26.33.48.68.67,1.05.08.13.13.27.17.42Z"/>
    <rect class="st11" x="295.43" y="383.01" width="63.23" height="14.69"/>
    <rect class="st11" x="358.66" y="383.01" width="11.37" height="14.69"/>
    <rect class="st1" x="358.66" y="383.01" width="11.37" height="14.69"/>
    <g class="st2">
      <path class="st9" d="M329.27,383.28c-.11.04-.22.07-.33.09l-1,.23c-.84.2-2,.53-3.52,1-3,.92-6.93,2.58-11.55,3.68-3.93.95-7.95,1.5-12,1.64-1.55.06-2.8,0-3.67,0l-1-.05h-.35,1.35c.87,0,2.12,0,3.67-.07,4.04-.19,8.06-.76,12-1.7,4.6-1.1,8.58-2.73,11.55-3.62,1.49-.46,2.71-.77,3.56-1,.43-.09.86-.15,1.29-.2Z"/>
    </g>
    <g class="st2">
      <path class="st9" d="M328.08,393.25l-.72-.09c-.46-.06-1.15-.13-2-.18-1.09-.06-2.17-.06-3.26,0-.63,0-1.3.1-2,.2-.35.03-.7.14-1,.32-.28.13-.4.47-.27.75.02.05.06.1.1.14.31.25.68.41,1.07.48.4.1.81.21,1.24.3.85.2,1.74.37,2.67.5,1.99.3,3.99.41,6,.35,1.06,0,2.14-.11,3.23-.25.55-.06,1.1-.15,1.65-.24.55-.06,1.06-.3,1.46-.68.35-.43.35-1.05,0-1.48-.36-.45-.85-.76-1.41-.89-1.14-.29-2.33-.53-3.52-.74-9.65-1.66-18.56-.56-24.86.25-3.17.43-5.72.84-7.49,1.12l-2,.32-.71.1s.24-.06.7-.14l2-.36c1.76-.31,4.31-.74,7.48-1.19,6.3-.84,15.23-2,24.91-.31,1.21.21,2.39.46,3.55.76.61.15,1.14.5,1.52,1,.41.51.41,1.22,0,1.73-.43.42-.99.68-1.58.75-.56.09-1.11.18-1.67.24-1.1.14-2.18.22-3.24.25-2.01.05-4.01-.07-6-.37-.93-.14-1.83-.32-2.68-.52-.42-.1-.84-.2-1.24-.32-.42-.07-.82-.25-1.14-.53-.15-.16-.22-.39-.17-.61.05-.21.18-.39.37-.49.28-.21.59-.35.93-.42.71-.09,1.39-.14,2-.17,1.09-.07,2.17-.07,3.26,0,.95.07,1.89.21,2.82.42Z"/>
    </g>
    <g class="st2">
      <path class="st9" d="M356.94,383.78c-.66.83-1.45,1.56-2.33,2.15-4.32,3.04-10.08,3.11-14.47.17-.9-.57-1.7-1.27-2.38-2.08.22.18.43.37.63.57.57.52,1.18.98,1.83,1.39,4.37,2.81,10,2.74,14.31-.17.64-.43,1.23-.91,1.79-1.44.4-.37.6-.6.62-.59Z"/>
    </g>
    <g class="st2">
      <path class="st9" d="M357.84,391.29h-2.94c-2.37.13-4.7.58-6.95,1.33-2.24.76-4.37,1.82-6.33,3.15-.75.51-1.35.95-1.74,1.27l-.46.36c-.1.09-.16.13-.17.12l.14-.15.44-.39c.54-.48,1.11-.93,1.7-1.34,1.96-1.37,4.1-2.45,6.36-3.21,2.26-.76,4.62-1.19,7-1.29.72-.04,1.44-.04,2.16,0l.59.05c.07.02.14.05.2.1Z"/>
    </g>
    <path class="st11" d="M369.79,387.09c-.12.01-.24.01-.36,0-.23,0-.57-.06-1-.13-1.07-.19-2.11-.52-3.09-1-.98-.49-1.87-1.12-2.67-1.87-.24-.22-.47-.46-.68-.71-.09-.09-.16-.18-.22-.29,0,0,.37.35,1,.89.81.7,1.7,1.31,2.66,1.8.95.47,1.96.83,3,1.07.86.15,1.37.2,1.36.24Z"/>
    <path class="st11" d="M369.59,392.11c-.5-.43-1.02-.82-1.56-1.19-1.37-.79-2.81-1.45-4.29-2-1.48-.62-2.81-1.55-3.9-2.73-.33-.36-.64-.74-.91-1.14-.11-.14-.2-.3-.27-.46,0,0,.44.62,1.28,1.49,1.1,1.13,2.42,2.04,3.88,2.65,1.5.56,2.93,1.27,4.29,2.11.4.27.78.58,1.13.91.13.1.25.23.35.36Z"/>
    <path class="st11" d="M367.73,397.7c-.3-.48-.64-.94-1-1.38-.91-1-1.99-1.85-3.18-2.5-1.37-.79-2.72-1.34-3.61-1.92-.35-.22-.68-.46-1-.73-.13-.09-.24-.2-.33-.32,0,0,.51.41,1.41.93s2.25,1.05,3.64,1.86c1.21.65,2.29,1.53,3.18,2.58.26.31.48.65.67,1,.1.15.17.31.22.48Z"/>
    <rect class="st11" x="301.38" y="445.65" width="63.23" height="14.69"/>
    <rect class="st11" x="364.61" y="445.65" width="11.37" height="14.69"/>
    <rect class="st1" x="364.61" y="445.65" width="11.37" height="14.69"/>
    <g class="st2">
      <path class="st9" d="M335.22,445.91c-.11.04-.22.07-.34.09l-1,.23c-.84.2-2.05.53-3.52,1-3,.92-6.93,2.58-11.55,3.69-3.94.94-7.96,1.49-12,1.64-1.55.06-2.81,0-3.67,0l-1-.05h-.35,1.35c.86,0,2.12,0,3.67-.07,4.04-.18,8.06-.75,12-1.7,4.6-1.1,8.58-2.73,11.55-3.62,1.48-.46,2.7-.77,3.55-1s1.31-.21,1.31-.21Z"/>
    </g>
    <g class="st2">
      <path class="st9" d="M334,455.88l-.71-.09c-.47-.05-1.16-.13-2.05-.18-1.08-.06-2.17-.06-3.25,0-.63,0-1.31.09-2,.19-.35.03-.7.14-1,.32-.28.14-.39.49-.24.77.02.04.05.09.08.12.3.25.67.42,1.06.48l1.25.31c.84.19,1.73.37,2.66.5,1.99.29,3.99.41,6,.35,1.05,0,2.13-.12,3.23-.25.54-.07,1.1-.15,1.65-.25.55-.06,1.06-.3,1.46-.68.35-.43.35-1.05,0-1.48-.36-.45-.86-.76-1.42-.88-1.13-.29-2.32-.54-3.52-.75-9.64-1.66-18.55-.56-24.85.25-3.17.43-5.73.84-7.49,1.12l-2,.32-.71.1.71-.14,2-.36c1.77-.3,4.32-.74,7.49-1.19,6.3-.84,15.22-2,24.91-.31,1.2.22,2.38.46,3.54.76.61.15,1.15.5,1.53,1,.4.51.4,1.23,0,1.74-.43.41-.99.67-1.58.74-.56.09-1.12.18-1.67.25-1.1.13-2.18.21-3.24.24-2.01.05-4.01-.07-6-.37-.94-.14-1.83-.32-2.68-.52-.43-.09-.84-.2-1.25-.31-.42-.08-.81-.26-1.13-.53-.15-.16-.22-.39-.18-.61.06-.21.19-.38.37-.5.33-.19.7-.3,1.08-.33.72-.09,1.39-.15,2-.18,1.09-.07,2.17-.07,3.26,0,.9.06,1.8.17,2.69.35Z"/>
    </g>
    <g class="st2">
      <path class="st9" d="M362.88,446.42c-.66.83-1.44,1.55-2.32,2.14-4.32,3.04-10.07,3.11-14.47.18-.9-.57-1.7-1.27-2.38-2.09,0,0,.22.2.62.57,2.47,2.22,5.68,3.45,9,3.46,2.54-.05,5.01-.83,7.12-2.24.64-.42,1.25-.91,1.8-1.44.41-.37.62-.59.63-.58Z"/>
    </g>
    <g class="st2">
      <path class="st9" d="M363.79,453.93h-2.95c-2.36.14-4.7.59-6.94,1.34-2.24.76-4.38,1.81-6.34,3.14-.75.51-1.34.95-1.73,1.27l-.46.37-.17.11.14-.14.44-.4c.54-.47,1.11-.92,1.7-1.33,1.95-1.38,4.09-2.46,6.35-3.22,2.26-.76,4.62-1.19,7-1.28.72-.04,1.44-.04,2.16,0h.59l.21.14Z"/>
    </g>
    <path class="st11" d="M375.74,449.72h-.36c-.34-.02-.67-.06-1-.13-2.16-.39-4.16-1.39-5.76-2.9-.22-.22-.43-.45-.62-.69-.15-.18-.22-.28-.21-.29s.37.35,1,.9c1.63,1.42,3.58,2.41,5.69,2.87.75.15,1.26.21,1.26.24Z"/>
    <path class="st11" d="M375.54,454.74c-.5-.42-1.03-.82-1.57-1.18-1.36-.79-2.8-1.46-4.28-2-1.48-.62-2.82-1.56-3.91-2.74-.33-.36-.63-.74-.9-1.14-.11-.14-.2-.29-.27-.45,0,0,.43.62,1.28,1.49,1.1,1.13,2.42,2.03,3.88,2.64,1.49.56,2.93,1.26,4.28,2.11.4.27.78.58,1.14.91.13.1.25.23.35.36Z"/>
    <path class="st11" d="M373.68,460.33c-.96-1.67-2.4-3.02-4.13-3.88-1.37-.79-2.72-1.34-3.61-1.91-.35-.22-.68-.46-1-.73-.12-.09-.23-.2-.32-.32,0,0,.51.4,1.41.92s2.24,1.06,3.64,1.86c1.21.66,2.29,1.54,3.18,2.59.26.33.48.68.67,1.05.07.13.13.27.16.42Z"/>
    <rect class="st11" x="294" y="352.08" width="63.23" height="14.69"/>
    <rect class="st11" x="357.23" y="352.08" width="11.37" height="14.69"/>
    <rect class="st1" x="357.23" y="352.08" width="11.37" height="14.69"/>
    <g class="st2">
      <path class="st9" d="M323,366.62l.34-.09,1-.22c.84-.21,2.05-.54,3.52-1,3-.93,6.93-2.59,11.55-3.69,3.93-.95,7.96-1.5,12-1.64,1.55-.06,2.81,0,3.68,0l1,.05h.35-1.35c-.86,0-2.12,0-3.66.07-4.04.18-8.06.75-12,1.69-4.6,1.1-8.58,2.74-11.55,3.63-1.48.46-2.7.76-3.55.95s-1.33.25-1.33.25Z"/>
    </g>
    <g class="st2">
      <path class="st9" d="M324.2,356.66l.71.08c.47.06,1.16.14,2,.19,1.08.06,2.17.06,3.25,0,.63,0,1.31-.1,2-.19.35-.03.7-.14,1-.32.28-.14.39-.49.24-.77-.02-.04-.05-.09-.08-.12-.3-.25-.67-.42-1.06-.48-.41-.11-.82-.22-1.25-.31-.84-.2-1.73-.37-2.66-.5-1.99-.3-3.99-.41-6-.35-1.05,0-2.13.11-3.23.25-.54.06-1.1.15-1.65.25-.55.06-1.06.3-1.46.67-.35.44-.35,1.05,0,1.49.36.44.86.75,1.42.88,1.13.29,2.32.54,3.52.75,9.64,1.65,18.55.55,24.85-.25,3.17-.43,5.73-.85,7.49-1.12l2-.33c.46-.07.71-.09.71-.09l-.71.14-2,.36c-1.77.3-4.32.73-7.49,1.18-6.3.85-15.22,2-24.91.31-1.2-.21-2.38-.45-3.54-.75-.61-.15-1.15-.5-1.53-1-.4-.51-.4-1.23,0-1.74.43-.41.99-.67,1.58-.74.57-.1,1.12-.18,1.67-.25,1.1-.13,2.18-.21,3.24-.24,2.01-.05,4.01.07,6,.37.94.13,1.83.31,2.68.51.43.1.84.21,1.25.32.42.07.81.25,1.13.53.15.16.22.39.18.61-.05.21-.19.38-.37.49-.33.2-.7.31-1.08.34-.72.09-1.4.15-2,.18-1.09.06-2.18.06-3.27,0-.88-.06-1.76-.18-2.63-.35Z"/>
    </g>
    <g class="st2">
      <path class="st9" d="M295.34,366.12c.66-.83,1.44-1.55,2.32-2.14,4.33-3.04,10.08-3.11,14.48-.18.9.56,1.7,1.27,2.37,2.09,0,0-.22-.21-.62-.57-.57-.52-1.18-.98-1.83-1.4-2.15-1.36-4.65-2.07-7.19-2.06-2.54.04-5.01.82-7.12,2.24-.64.42-1.24.9-1.8,1.43-.39.38-.6.6-.61.59Z"/>
    </g>
    <g class="st2">
      <path class="st9" d="M294.43,358.61h2.95c4.75-.26,9.34-1.8,13.28-4.47.75-.51,1.34-1,1.73-1.28l.46-.36.17-.12s0,.06-.14.15-.28.26-.44.39c-.54.48-1.1.93-1.7,1.34-3.92,2.76-8.56,4.33-13.36,4.5-.72.04-1.44.04-2.16,0l-.59-.05-.2-.1Z"/>
    </g>
    <path class="st11" d="M368.36,356.15h-.36c-.34-.02-.67-.06-1-.13-1.07-.19-2.11-.52-3.09-1-.97-.5-1.87-1.12-2.67-1.87-.24-.23-.47-.47-.68-.72-.16-.18-.23-.28-.22-.29s.37.35,1,.9c.81.69,1.71,1.28,2.66,1.76.95.48,1.96.84,3,1.08.85.18,1.37.24,1.36.27Z"/>
    <path class="st11" d="M368.16,361.17c-.5-.42-1.02-.81-1.56-1.17-1.37-.79-2.8-1.46-4.29-2-1.48-.63-2.82-1.56-3.91-2.74-.33-.36-.63-.74-.9-1.14-.11-.14-.2-.29-.27-.45,0,0,.44.62,1.28,1.49,1.1,1.13,2.42,2.03,3.88,2.64,1.5.56,2.93,1.27,4.29,2.11.4.27.78.58,1.13.91.13.1.25.22.35.35Z"/>
    <path class="st11" d="M366.3,366.76c-.29-.48-.6-.94-.95-1.38-.91-1-1.99-1.85-3.18-2.49-1.37-.8-2.72-1.35-3.61-1.92-.35-.22-.68-.47-1-.73-.12-.09-.23-.2-.32-.32,0,0,.51.4,1.41.92s2.24,1.06,3.64,1.86c1.21.66,2.29,1.54,3.18,2.59.26.31.48.64.67,1,.08.15.13.31.16.47Z"/>
    <rect class="st11" x="298.89" y="414.26" width="63.23" height="14.69"/>
    <rect class="st11" x="362.12" y="414.26" width="11.37" height="14.69"/>
    <rect class="st1" x="362.12" y="414.26" width="11.37" height="14.69"/>
    <g class="st2">
      <path class="st9" d="M327.89,428.8l.34-.08,1-.23c.84-.21,2.05-.54,3.52-1,3-.92,6.93-2.58,11.55-3.69,3.94-.94,7.96-1.49,12-1.64,1.55-.06,2.81,0,3.67,0l1,.05h.35-1.32c-.86,0-2.12,0-3.67.07-4.04.18-8.06.75-12,1.69-4.6,1.1-8.58,2.74-11.55,3.63-1.49.46-2.71.77-3.55.95s-1.34.25-1.34.25Z"/>
    </g>
    <g class="st2">
      <path class="st9" d="M329.09,418.84l.71.08c.47.06,1.16.14,2.05.19,1.08.06,2.17.06,3.25,0,.63,0,1.31-.1,2-.19.35-.03.7-.14,1-.32.28-.14.39-.49.24-.77-.02-.04-.05-.09-.08-.12-.31-.26-.68-.42-1.07-.48-.4-.11-.81-.22-1.24-.31-.85-.19-1.73-.37-2.66-.5-1.99-.3-3.99-.41-6-.35-1.06,0-2.13.11-3.23.25-.54.06-1.1.15-1.65.25-.55.06-1.06.29-1.46.67-.35.44-.35,1.05,0,1.49.36.44.86.75,1.41.88,1.14.29,2.33.54,3.53.75,9.64,1.65,18.55.55,24.85-.25,3.17-.43,5.73-.85,7.49-1.12l2-.33c.46-.07.71-.09.71-.09l-.71.14-2,.36c-1.76.3-4.31.73-7.48,1.18-6.3.85-15.23,2-24.91.31-1.21-.21-2.38-.45-3.55-.75-.61-.15-1.14-.5-1.52-1-.4-.51-.4-1.23,0-1.74.43-.41.99-.67,1.58-.74.56-.1,1.12-.18,1.67-.25,1.1-.13,2.18-.21,3.24-.24,2.01-.05,4.01.07,6,.37.93.14,1.83.31,2.68.51.43.1.84.21,1.25.32.42.07.81.26,1.13.53.15.16.22.39.18.61-.05.21-.19.38-.37.49-.33.2-.71.31-1.09.34-.71.09-1.39.15-2,.18-1.09.06-2.17.06-3.26,0-.9-.06-1.8-.17-2.69-.35Z"/>
    </g>
    <g class="st2">
      <path class="st9" d="M300.23,428.3c.66-.83,1.44-1.55,2.32-2.14,4.32-3.02,10.06-3.09,14.45-.16.9.56,1.71,1.27,2.38,2.09,0,0-.22-.21-.63-.57-.57-.52-1.18-.99-1.83-1.4-4.38-2.81-10.01-2.74-14.31.18-.63.43-1.23.91-1.79,1.43-.37.36-.58.58-.59.57Z"/>
    </g>
    <g class="st2">
      <path class="st9" d="M299.32,420.79c.07-.01.14-.01.21,0h2.73c4.75-.26,9.35-1.8,13.29-4.47.75-.51,1.34-.95,1.73-1.28l.46-.36.17-.12c-.04.06-.09.11-.14.15l-.44.4c-.54.47-1.11.92-1.7,1.33-3.92,2.76-8.56,4.33-13.36,4.5-.72.04-1.44.04-2.16,0l-.59-.05-.2-.1Z"/>
    </g>
    <path class="st11" d="M373.25,418.33h-.36c-.34-.02-.67-.06-1-.13-2.16-.39-4.16-1.39-5.76-2.9-.24-.23-.47-.47-.69-.72-.15-.18-.22-.28-.21-.29s.37.36,1,.9c.81.7,1.7,1.3,2.66,1.79.95.48,1.96.84,3,1.08.85.18,1.36.24,1.36.27Z"/>
    <path class="st11" d="M373.05,423.35c-.5-.42-1.03-.82-1.57-1.18-1.36-.79-2.8-1.46-4.28-2-1.48-.62-2.82-1.56-3.91-2.74-.33-.36-.63-.73-.9-1.13-.1-.14-.19-.3-.27-.46,0,0,.43.62,1.28,1.49,1.1,1.13,2.42,2.03,3.88,2.64,1.5.56,2.93,1.27,4.29,2.11.4.27.78.58,1.13.91.13.11.25.23.35.36Z"/>
    <path class="st11" d="M371.19,428.94c-.3-.48-.63-.94-1-1.38-.91-1.01-1.98-1.85-3.17-2.49-1.37-.8-2.72-1.35-3.61-1.92-.35-.22-.68-.47-1-.73-.12-.09-.23-.2-.32-.32,0,0,.51.4,1.41.92s2.24,1.06,3.64,1.87c1.21.65,2.29,1.53,3.18,2.58.26.31.48.64.67,1,.09.15.16.3.2.47Z"/>
    <rect class="st6" x="358.25" y="304.18" width="16.64" height="16.64"/>
    <rect class="st13" x="349.08" y="304.18" width="16.64" height="16.64"/>
    <path class="st6" d="M363.34,304.43h-.59c-.54.02-1.06.16-1.55.39-1.27.53-2.56,2-4.47,3-2.09,1.12-4.45,1.65-6.82,1.55-.2,0-.4-.03-.59-.07.2-.02.4-.02.6,0,.38,0,.94,0,1.62-.1,1.78-.19,3.51-.72,5.09-1.55,1.87-.94,3.18-2.42,4.51-2.94.5-.23,1.05-.35,1.61-.34.2-.02.4,0,.59.06Z"/>
    <path class="st6" d="M357.27,312.44c-.4.24-.82.44-1.25.61-1.18.49-2.43.8-3.7.92-.41,0-.83.06-1.27.06-.24.02-.48-.01-.7-.1-.25-.14-.34-.46-.21-.71.63-.8,1.41-1.48,2.29-2,2-1.24,4.34-1.81,6.68-1.61.62.04,1.22.17,1.79.41.59.23.99.79,1,1.43-.08.6-.42,1.13-.93,1.46-.44.32-.91.62-1.39.89-1.64.93-3.38,1.7-5.18,2.28-1.65.55-3.34.97-5.05,1.25l.35-.09,1-.25c.88-.21,2.14-.54,3.66-1.05,1.78-.59,3.49-1.36,5.12-2.3.47-.27.92-.56,1.36-.88.46-.29.78-.77.86-1.31-.02-.56-.39-1.06-.92-1.24-.55-.23-1.13-.36-1.73-.39-2.29-.19-4.59.35-6.55,1.56-.86.5-1.62,1.15-2.24,1.92-.1.16-.06.37.1.47.01,0,.02.01.03.02.2.08.41.11.62.09.42,0,.83,0,1.25-.05,1.28-.09,2.54-.37,3.74-.83.42-.16.73-.3.95-.4.1-.06.21-.11.32-.16Z"/>
    <path class="st6" d="M365,315.49c-.18.05-.37.09-.56.1-.36,0-.88.11-1.52.23-1.66.3-3.29.77-4.86,1.4-1.56.64-3.06,1.43-4.47,2.37-.54.37-1,.67-1.26.89-.14.12-.3.23-.46.32.13-.14.26-.26.41-.38.28-.24.7-.57,1.23-.95,1.4-.99,2.9-1.82,4.49-2.47,1.58-.64,3.23-1.1,4.92-1.36.64-.09,1.17-.15,1.53-.17.18,0,.37,0,.55.02Z"/>
    <path class="st6" d="M365.72,319.08s-.3-.12-.8-.22c-.65-.14-1.32-.11-1.95.1-.88.35-1.62.96-2.13,1.76.07-.28.21-.54.4-.75.85-1.15,2.33-1.65,3.71-1.26.28.06.55.18.77.37Z"/>
    <path class="st13" d="M375,309.66c-.14.02-.28.02-.42,0-.39.02-.78.02-1.17,0-1.28-.14-2.53-.49-3.69-1.05-1.17-.55-2.22-1.32-3.09-2.27-.26-.28-.5-.59-.72-.91-.08-.12-.15-.24-.21-.37,0,0,.36.49,1,1.18.89.9,1.93,1.65,3.07,2.19,1.14.54,2.37.91,3.62,1.08,1.02.13,1.61.11,1.61.15Z"/>
    <path class="st13" d="M375,314.42s-.48-.26-1.25-.66c-1.01-.52-2.06-.97-3.13-1.34-1.08-.36-2.18-.64-3.3-.84-.86-.15-1.39-.21-1.39-.24s.14,0,.38,0,.6,0,1,.1c2.28.31,4.47,1.06,6.47,2.2.38.22.68.41.88.55.12.06.24.14.34.23Z"/>
    <path class="st13" d="M375,319.29s-.14.08-.42.17c-.4.11-.81.17-1.22.18-1.38.05-2.74-.39-3.84-1.23-1.32-1-1.79-2.47-2.5-3.19-.36-.42-.83-.74-1.36-.92.16,0,.31.03.45.1.38.17.72.41,1,.72.77.74,1.26,2.18,2.52,3.12,1.07.81,2.37,1.25,3.71,1.26.56-.02,1.11-.09,1.66-.21Z"/>
    <rect class="st6" x="327.43" y="335.44" width="16.64" height="16.64"/>
    <rect class="st13" x="318.27" y="335.44" width="16.64" height="16.64"/>
    <path class="st6" d="M320.88,352h.59c.54-.02,1.07-.15,1.55-.39,1.27-.53,2.56-2,4.47-3,2.09-1.12,4.45-1.65,6.82-1.55.38,0,.6.06.6.07-.2.02-.4.02-.6,0-.54,0-1.09.03-1.63.09-1.78.19-3.51.72-5.09,1.55-1.87.94-3.18,2.42-4.51,2.95-.5.23-1.06.34-1.61.33-.2.02-.4,0-.59-.05Z"/>
    <path class="st6" d="M327,344c.4-.24.82-.45,1.26-.62,1.18-.48,2.42-.79,3.69-.92.41,0,.83-.06,1.27-.06.24-.02.48.02.7.11.25.14.35.45.21.7,0,0,0,0,0,0-.64.8-1.41,1.48-2.29,2-2,1.23-4.33,1.79-6.67,1.6-.62-.03-1.23-.16-1.8-.41-.59-.23-.99-.79-1-1.43.09-.6.43-1.13.94-1.46.44-.32.9-.62,1.38-.89,1.64-.93,3.38-1.7,5.18-2.28,1.65-.54,3.34-.96,5.05-1.25l-.35.1-1,.24c-.87.22-2.13.54-3.66,1.05-1.78.59-3.5,1.37-5.12,2.31-.47.27-.92.56-1.36.87-.46.3-.77.78-.86,1.32.03.56.4,1.05.93,1.24.55.23,1.14.35,1.73.38,2.29.19,4.59-.35,6.55-1.56.85-.5,1.61-1.15,2.23-1.92.1-.16.06-.37-.1-.47-.01,0-.02-.01-.03-.02-.2-.08-.41-.11-.62-.09-.43,0-.85,0-1.25.05-1.26.11-2.5.39-3.69.84-.41.16-.73.31-1,.4l-.32.16Z"/>
    <path class="st6" d="M319.23,340.94c.18-.05.37-.08.56-.09.36,0,.88-.12,1.52-.24,1.66-.3,3.29-.77,4.86-1.4,1.57-.64,3.06-1.43,4.47-2.37.54-.36,1-.67,1.26-.89.14-.12.3-.23.46-.32-.12.14-.26.27-.41.38-.39.34-.8.66-1.23.95-2.79,1.98-6,3.28-9.38,3.8-.65.1-1.18.15-1.54.17-.19.02-.38.02-.57,0Z"/>
    <path class="st6" d="M318.5,337.35s.3.12.8.23c.65.14,1.32.1,1.95-.11.88-.34,1.63-.96,2.13-1.76-.07.28-.21.54-.4.76-.42.56-1,.98-1.66,1.2-.66.23-1.38.24-2.05.05-.28-.06-.55-.19-.77-.37Z"/>
    <path class="st13" d="M344.21,340.92c-.14.02-.29.02-.43,0-.39.02-.77.02-1.16,0-1.28-.14-2.53-.49-3.69-1.05-1.17-.55-2.22-1.32-3.09-2.27-.27-.28-.51-.59-.72-.91-.15-.24-.23-.37-.21-.37s.36.49,1,1.18c.89.9,1.93,1.65,3.07,2.19,1.14.54,2.36.91,3.61,1.08,1.01.13,1.62.11,1.62.15Z"/>
    <path class="st13" d="M344.21,345.68s-.49-.26-1.26-.66c-1.01-.52-2.06-.97-3.13-1.34-1.07-.36-2.17-.64-3.29-.84-.86-.15-1.4-.21-1.4-.24s.14,0,.39,0,.6.05,1,.1c2.28.31,4.47,1.06,6.47,2.2.38.22.68.41.88.55.12.06.24.14.34.23Z"/>
    <path class="st13" d="M344.23,350.55c-.13.08-.27.13-.42.17-.4.11-.81.17-1.23.18-1.38.05-2.74-.39-3.84-1.23-1.32-1-1.79-2.47-2.5-3.19-.36-.42-.83-.74-1.35-.92.15,0,.3.03.44.1.38.17.72.41,1,.72.77.74,1.26,2.18,2.52,3.12,1.07.81,2.37,1.25,3.71,1.26.56-.01,1.12-.08,1.67-.21Z"/>
    <rect class="st6" x="330.36" y="428.94" width="16.64" height="16.64"/>
    <rect class="st13" x="321.2" y="428.94" width="16.64" height="16.64"/>
    <path class="st6" d="M323.81,445.5h.59c.54-.02,1.06-.16,1.55-.39,1.27-.53,2.56-2,4.47-3,1.61-.85,3.37-1.36,5.18-1.52.55-.04,1.09-.04,1.64,0,.2,0,.39.03.59.06-.2.02-.4.02-.6,0-.54,0-1.08.03-1.62.09-1.78.19-3.51.72-5.09,1.55-1.87.94-3.18,2.42-4.51,2.95-.5.23-1.06.34-1.61.33-.2.01-.4-.01-.59-.07Z"/>
    <path class="st6" d="M329.88,437.5c.4-.24.82-.45,1.25-.62,1.18-.48,2.43-.79,3.7-.92.41,0,.83-.06,1.27-.06.24-.02.48.02.7.11.25.14.35.45.21.7,0,0,0,0,0,0-.64.8-1.41,1.48-2.29,2-2,1.23-4.34,1.79-6.68,1.6-.62-.02-1.22-.16-1.79-.41-.59-.23-.99-.79-1-1.43.08-.6.42-1.13.93-1.46.45-.32.91-.62,1.39-.89,1.64-.93,3.38-1.7,5.18-2.28,1.65-.54,3.34-.96,5.05-1.25l-.35.1-1,.24c-.88.22-2.14.54-3.66,1.05-1.78.6-3.49,1.37-5.12,2.31-.47.27-.93.56-1.36.88-.46.29-.77.77-.86,1.31.02.56.39,1.06.92,1.24.55.22,1.14.35,1.73.38,2.29.2,4.59-.35,6.55-1.56.86-.5,1.62-1.15,2.24-1.92.1-.16.06-.37-.1-.47-.01,0-.02-.01-.03-.02-.2-.08-.41-.11-.62-.09-.44,0-.86,0-1.25.05-1.26.11-2.5.39-3.69.84-.42.16-.73.31-1,.4l-.32.16Z"/>
    <path class="st6" d="M322.16,434.44c.18-.05.37-.08.56-.09.36,0,.88-.12,1.52-.23,1.66-.3,3.29-.77,4.86-1.41,1.57-.64,3.06-1.43,4.47-2.37.54-.36,1-.67,1.26-.89.14-.12.3-.23.46-.32-.12.14-.26.27-.41.39-.28.24-.7.56-1.23.94-1.39.98-2.89,1.8-4.47,2.45-1.58.64-3.23,1.09-4.91,1.35-.65.1-1.18.15-1.54.17-.19.02-.38.02-.57,0Z"/>
    <path class="st6" d="M321.43,430.85s.3.12.8.23c.65.14,1.32.1,1.95-.11.88-.34,1.62-.95,2.13-1.75-.08.28-.21.53-.4.75-.42.56-1,.98-1.66,1.2-.66.23-1.38.24-2.05.05-.28-.06-.55-.18-.77-.37Z"/>
    <path class="st13" d="M347.13,434.42c-.14.02-.28.02-.42,0-.39.03-.78.03-1.17,0-1.28-.13-2.52-.46-3.69-1-1.16-.55-2.21-1.33-3.08-2.28-.27-.28-.51-.58-.72-.91-.08-.12-.16-.24-.22-.37,0,0,.37.49,1,1.18.89.9,1.93,1.64,3.07,2.19,1.14.54,2.37.91,3.62,1.08,1.01.09,1.61.07,1.61.11Z"/>
    <path class="st13" d="M347.13,439.18s-.48-.26-1.25-.66c-1.01-.52-2.06-.97-3.13-1.34-1.07-.36-2.17-.64-3.29-.84-.86-.15-1.4-.21-1.4-.24s.14,0,.38,0,.6.05,1,.1c2.28.31,4.47,1.06,6.47,2.2.38.22.68.41.88.55.12.06.24.14.34.23Z"/>
    <path class="st13" d="M347.16,444.05c-.13.08-.28.14-.43.17-.4.11-.81.17-1.22.18-1.38.05-2.74-.39-3.84-1.23-1.32-1-1.79-2.47-2.5-3.19-.36-.42-.83-.73-1.35-.92.15,0,.3.04.44.1.38.17.72.41,1,.72.77.74,1.26,2.18,2.52,3.12,1.07.81,2.37,1.26,3.71,1.26.56-.01,1.12-.08,1.67-.21Z"/>
    <rect class="st6" x="329.31" y="366.69" width="16.64" height="16.64"/>
    <rect class="st13" x="320.15" y="366.69" width="16.64" height="16.64"/>
    <path class="st6" d="M322.76,383.25h.59c.54-.02,1.06-.16,1.55-.39,1.26-.53,2.56-2,4.47-3,2.09-1.12,4.44-1.65,6.81-1.55.2,0,.4.03.6.07-.2.02-.4.02-.6,0-.38,0-.94,0-1.62.1-1.78.19-3.51.72-5.09,1.55-1.87.94-3.18,2.42-4.51,2.95-.51.23-1.06.34-1.61.33-.2.02-.4,0-.59-.06Z"/>
    <path class="st6" d="M328.83,375.25c.4-.24.82-.45,1.25-.62,1.18-.48,2.43-.79,3.7-.92.4,0,.83-.06,1.27-.06.23-.02.47.01.69.1.25.13.35.43.22.69,0,0,0,.02-.01.02-.63.81-1.4,1.49-2.29,2-1.99,1.24-4.33,1.81-6.67,1.61-.62-.03-1.23-.17-1.8-.41-.6-.23-.99-.79-1-1.43.08-.6.42-1.13.93-1.46.45-.32.91-.62,1.39-.89,1.64-.93,3.37-1.7,5.17-2.28,1.65-.55,3.34-.97,5.06-1.25l-.35.09-1,.25c-.87.21-2.13.54-3.65,1.05-1.78.59-3.5,1.37-5.13,2.31-.47.27-.92.56-1.36.87-.46.3-.77.78-.85,1.32.03.56.39,1.05.92,1.24.55.22,1.14.35,1.73.38,2.29.2,4.59-.35,6.55-1.56.85-.5,1.61-1.15,2.24-1.92.1-.16.06-.37-.1-.47-.01,0-.02-.01-.03-.02-.2-.08-.41-.11-.62-.09-.44,0-.86,0-1.26.05-1.26.11-2.5.4-3.68.84-.42.16-.74.31-.95.4l-.37.16Z"/>
    <path class="st6" d="M321.11,372.19c.18-.05.37-.08.56-.09.36,0,.88-.12,1.52-.24,1.66-.3,3.29-.77,4.86-1.4,1.57-.64,3.06-1.43,4.47-2.37.54-.36,1-.67,1.25-.89.15-.12.3-.23.47-.32-.13.14-.27.27-.42.38-.27.24-.69.57-1.22.95-1.39.98-2.89,1.8-4.47,2.44-1.58.64-3.23,1.1-4.92,1.36-.64.1-1.17.15-1.53.17-.19.02-.38.02-.57,0Z"/>
    <path class="st6" d="M320.38,368.6s.3.12.8.23c.65.13,1.32.1,1.95-.11.88-.35,1.62-.97,2.13-1.76-.07.28-.21.54-.4.76-.42.55-1,.97-1.66,1.2-.67.22-1.38.24-2.06.05-.28-.06-.54-.19-.76-.37Z"/>
    <path class="st13" d="M346.08,372.17c-.14.02-.28.02-.42,0-.39.02-.78.02-1.17,0-1.28-.14-2.53-.49-3.69-1.05-1.17-.55-2.22-1.32-3.09-2.27-.27-.28-.51-.59-.71-.92-.09-.11-.16-.24-.22-.37,0,0,.36.49,1,1.19.89.9,1.93,1.64,3.07,2.19,1.14.54,2.37.91,3.62,1.08,1,.13,1.61.11,1.61.15Z"/>
    <path class="st13" d="M346.08,376.93s-.48-.26-1.25-.66c-1.01-.52-2.06-.97-3.13-1.34-1.08-.36-2.18-.64-3.3-.84-.47-.06-.93-.14-1.39-.25h.38c.25,0,.6,0,1,.1,2.28.31,4.47,1.06,6.47,2.2.38.22.68.41.88.55s.35.22.34.24Z"/>
    <path class="st13" d="M346.11,381.8c-.14.07-.28.13-.43.17-.4.11-.81.17-1.22.18-1.38.04-2.74-.4-3.84-1.24-1.32-1-1.79-2.46-2.5-3.18-.36-.42-.83-.73-1.35-.92.15,0,.3.03.44.1.38.17.72.41,1,.72.77.74,1.27,2.18,2.53,3.12,1.07.81,2.37,1.25,3.71,1.26.56-.02,1.11-.09,1.66-.21Z"/>
    <rect class="st6" x="300.83" y="304.15" width="16.64" height="16.64"/>
    <rect class="st13" x="291.66" y="304.15" width="16.64" height="16.64"/>
    <path class="st6" d="M305.92,304.4h-.59c-.54.02-1.07.15-1.55.39-1.27.53-2.56,2-4.47,3-2.09,1.12-4.45,1.65-6.82,1.55l-.6-.07c.2-.02.4-.02.6,0,.54,0,1.09-.03,1.63-.09,1.78-.19,3.51-.72,5.09-1.55,1.87-.94,3.18-2.42,4.51-2.95.5-.23,1.06-.34,1.61-.33.2-.02.4,0,.59.05Z"/>
    <path class="st6" d="M299.85,312.4c-.4.24-.82.45-1.25.62-1.18.48-2.43.79-3.7.92-.41,0-.83.06-1.27.06-.24.02-.48-.02-.7-.11-.25-.14-.35-.45-.21-.7,0,0,0,0,0,0,.64-.8,1.41-1.48,2.29-2,2-1.23,4.33-1.79,6.67-1.6.62.02,1.23.16,1.8.41.59.23.99.79,1,1.43-.09.6-.43,1.13-.94,1.46-.44.32-.9.62-1.38.89-1.64.92-3.37,1.66-5.16,2.23-1.63.54-3.3.96-5,1.25l.35-.1,1-.24c.87-.22,2.13-.54,3.66-1.05,1.78-.59,3.5-1.37,5.12-2.31.47-.27.92-.56,1.36-.87.46-.3.77-.78.86-1.32-.03-.56-.4-1.05-.93-1.24-.55-.22-1.13-.35-1.72-.38-2.3-.2-4.6.35-6.56,1.56-.85.5-1.61,1.15-2.23,1.92-.1.16-.06.37.1.47.01,0,.02.01.03.02.2.08.41.11.62.09h1.25c1.26-.11,2.5-.39,3.69-.84.41-.16.73-.31.95-.4l.3-.16Z"/>
    <path class="st6" d="M307.57,315.46c-.18.05-.37.08-.56.09-.36,0-.88.12-1.52.23-1.66.3-3.29.77-4.86,1.41-1.57.64-3.06,1.43-4.47,2.37-.54.36-1,.67-1.26.89-.14.12-.3.23-.46.32.12-.14.26-.27.41-.38.39-.34.8-.66,1.23-.95,2.79-1.98,6-3.28,9.38-3.8.65-.1,1.18-.15,1.54-.17.19-.02.38-.02.57-.01Z"/>
    <path class="st6" d="M308.3,319.05s-.3-.12-.8-.23c-.65-.14-1.32-.1-1.95.11-.88.34-1.62.95-2.13,1.75.08-.28.21-.53.4-.75.42-.56,1-.98,1.66-1.2.65-.22,1.34-.23,2-.05.3.05.58.18.82.37Z"/>
    <path class="st13" d="M317.6,309.63h-.43c-.39.03-.77.03-1.16,0-1.28-.12-2.53-.45-3.69-1-1.17-.55-2.22-1.32-3.09-2.27-.27-.28-.51-.59-.72-.92-.09-.11-.16-.24-.21-.37,0,0,.36.49,1,1.19.89.9,1.93,1.64,3.07,2.18,1.14.55,2.36.92,3.62,1.09,1.01.07,1.61.06,1.61.1Z"/>
    <path class="st13" d="M317.6,314.38s-.48-.25-1.26-.65c-1-.53-2.05-.98-3.12-1.34-1.08-.36-2.18-.65-3.3-.85-.47-.06-.93-.14-1.39-.24h.38c.24,0,.6,0,1,.1,1.14.15,2.26.42,3.35.79,1.09.37,2.13.84,3.13,1.41.38.22.68.41.88.55.12.06.23.14.33.23Z"/>
    <path class="st13" d="M317.62,319.26c-.13.07-.27.12-.42.16-.4.11-.81.18-1.22.19-1.39.04-2.75-.39-3.85-1.24-1.31-1-1.78-2.46-2.5-3.18-.36-.42-.83-.74-1.35-.92.16,0,.31.03.45.1.38.17.72.41,1,.72.77.73,1.26,2.17,2.52,3.12,1.07.81,2.37,1.25,3.71,1.25.56-.01,1.11-.08,1.66-.2Z"/>
    <rect class="st6" x="358.3" y="335.44" width="16.64" height="16.64"/>
    <rect class="st13" x="349.14" y="335.44" width="16.64" height="16.64"/>
    <path class="st6" d="M363.4,335.69h-.6c-.54.02-1.06.16-1.55.39-1.26.53-2.56,2-4.47,3-2.08,1.1-4.42,1.63-6.78,1.52-.2,0-.4-.03-.6-.07.2-.02.4-.02.6,0,2.34-.02,4.63-.58,6.71-1.65,1.88-.94,3.18-2.42,4.51-2.94.5-.23,1.05-.35,1.61-.34.19,0,.39.03.57.09Z"/>
    <path class="st6" d="M365,346.75c-.18.05-.37.09-.56.1-.36,0-.88.11-1.52.23-1.66.3-3.29.77-4.86,1.4-1.56.64-3.06,1.44-4.47,2.37-.54.37-1,.67-1.25.89-.15.12-.3.23-.47.32.13-.14.27-.27.42-.38.27-.24.69-.57,1.22-.95,2.8-1.97,6.01-3.27,9.39-3.8.64-.09,1.17-.15,1.53-.17.19-.02.38-.02.57-.01Z"/>
    <path class="st6" d="M365.77,350.34s-.3-.12-.8-.22c-.66-.15-1.36-.12-2,.1-.88.35-1.62.97-2.13,1.76.07-.28.21-.54.4-.75.87-1.16,2.37-1.65,3.76-1.23.28.05.54.17.77.34Z"/>
    <path class="st13" d="M375.07,340.92c-.14.02-.28.02-.42,0-.39.02-.78.02-1.17,0-1.28-.14-2.53-.49-3.69-1.05-1.16-.55-2.21-1.32-3.08-2.27-.27-.28-.51-.58-.72-.91-.08-.12-.16-.24-.22-.37,0,0,.36.49,1,1.18.89.9,1.93,1.64,3.07,2.19,1.14.54,2.37.91,3.62,1.08,1.01.13,1.61.11,1.61.15Z"/>
    <path class="st13" d="M375.07,345.68s-.48-.26-1.25-.66c-1.01-.52-2.06-.97-3.13-1.34-1.07-.36-2.17-.64-3.29-.84-.86-.15-1.4-.21-1.4-.24s.14,0,.38,0,.6.05,1,.1c2.28.31,4.47,1.06,6.47,2.2.38.22.68.41.88.55.12.06.24.14.34.23Z"/>
    <path class="st13" d="M375.1,350.55c-.13.08-.28.14-.43.17-.4.11-.81.17-1.22.18-1.38.05-2.74-.39-3.84-1.23-1.32-1-1.79-2.47-2.5-3.19-.36-.42-.83-.73-1.35-.92.15,0,.3.03.44.1.38.17.72.41,1,.72.77.74,1.26,2.18,2.52,3.12,1.07.81,2.37,1.26,3.71,1.26.56-.01,1.12-.08,1.67-.21Z"/>
    <path class="st6" d="M365.83,340.63c-.21.09-.43.16-.65.2l-1.8.48-6,1.5c-1.99.47-3.95,1.08-5.86,1.81-.73.28-1.31.55-1.7.74-.2.11-.41.2-.63.28.19-.13.38-.25.59-.35.39-.21,1-.5,1.68-.81,1.91-.77,3.87-1.4,5.87-1.87l6-1.44,1.82-.41c.22-.06.45-.1.68-.13Z"/>
    <rect class="st6" x="297.17" y="428.94" width="16.64" height="16.64"/>
    <rect class="st13" x="288.01" y="428.94" width="16.64" height="16.64"/>
    <path class="st6" d="M302.27,429.2h-.6c-.54.02-1.06.16-1.55.39-1.26.54-2.56,2-4.46,3-2.1,1.11-4.45,1.64-6.82,1.54-.2,0-.4-.03-.6-.07.2-.02.4-.02.6,0,.39,0,.94,0,1.63-.09,1.78-.2,3.51-.73,5.09-1.56,1.87-.94,3.18-2.42,4.5-2.94.51-.23,1.06-.35,1.62-.34.2-.02.4,0,.59.07Z"/>
    <path class="st6" d="M303.92,440.25c-.18.05-.37.09-.56.1-.37,0-.89.11-1.52.23-3.34.59-6.52,1.88-9.33,3.78-.54.36-1,.66-1.26.88-.14.13-.3.24-.47.32.13-.14.27-.27.42-.38.27-.24.69-.57,1.22-.95,2.8-1.97,6.01-3.27,9.39-3.8.65-.09,1.17-.15,1.54-.16.19-.02.38-.03.57-.02Z"/>
    <path class="st6" d="M304.65,443.84s-.31-.12-.8-.22c-.66-.15-1.36-.12-2,.1-.88.35-1.62.96-2.13,1.76.07-.28.2-.53.39-.75.43-.56,1.01-.98,1.67-1.21.67-.2,1.38-.2,2.05,0,.29.04.57.15.82.32Z"/>
    <path class="st13" d="M314,434.42c-.14.02-.29.02-.43,0-.39.03-.77.03-1.16,0-1.28-.12-2.52-.46-3.69-1-1.17-.56-2.22-1.33-3.09-2.28-.26-.28-.5-.59-.72-.91-.08-.12-.15-.24-.21-.37,0,0,.36.49,1,1.18.89.9,1.93,1.65,3.07,2.19,1.14.54,2.36.91,3.62,1.08.95.09,1.61.07,1.61.11Z"/>
    <path class="st13" d="M314,439.18s-.48-.26-1.26-.66c-1.01-.52-2.05-.97-3.12-1.34-1.08-.36-2.18-.64-3.3-.84-.86-.15-1.4-.21-1.4-.24.13-.02.26-.02.39,0,.24,0,.6.05,1,.1,1.14.16,2.25.42,3.34.79,1.09.37,2.13.84,3.13,1.41.38.22.68.41.89.55.12.06.23.14.33.23Z"/>
    <path class="st13" d="M314,444.05s-.14.08-.42.17c-.4.11-.81.17-1.23.18-1.38.05-2.74-.39-3.84-1.23-1.31-1-1.79-2.47-2.5-3.19-.36-.42-.83-.74-1.35-.92.15,0,.3.04.44.1.38.17.72.41,1,.72.77.74,1.26,2.18,2.52,3.12,1.07.81,2.37,1.25,3.71,1.26.56-.01,1.12-.08,1.67-.21Z"/>
    <path class="st6" d="M304.71,434.13c-.21.09-.43.16-.66.2l-1.8.48-6,1.5c-1.99.47-3.96,1.08-5.87,1.81-.73.28-1.3.55-1.7.74l-.62.28c.18-.13.38-.25.58-.35.39-.21,1-.5,1.69-.81,1.9-.78,3.87-1.4,5.87-1.87l6-1.44,1.82-.41c.23-.06.46-.11.69-.13Z"/>
    <rect class="st6" x="298.84" y="335.44" width="16.64" height="16.64"/>
    <rect class="st13" x="289.68" y="335.44" width="16.64" height="16.64"/>
    <path class="st6" d="M305.58,346.75c-.18.05-.37.08-.56.09-.36,0-.88.12-1.52.23-3.33.6-6.51,1.89-9.32,3.78-.54.36-1,.67-1.26.89-.14.12-.3.23-.47.32.13-.14.27-.27.42-.39.27-.24.69-.56,1.22-.94,1.4-.98,2.9-1.81,4.48-2.45,1.58-.64,3.23-1.09,4.91-1.35.65-.1,1.17-.15,1.54-.17.19-.02.37-.02.56,0Z"/>
    <path class="st6" d="M306.32,350.34s-.31-.12-.81-.23c-.65-.14-1.32-.1-1.95.11-.87.34-1.62.96-2.12,1.75.07-.28.2-.53.39-.75.43-.55,1.01-.97,1.67-1.2.67-.21,1.38-.21,2.05,0,.28.04.54.15.77.32Z"/>
    <path class="st13" d="M315.62,340.92h-.43c-.39.03-.77.03-1.16,0-1.28-.12-2.53-.45-3.69-1-1.17-.55-2.22-1.32-3.09-2.27-.27-.29-.51-.59-.72-.92-.15-.23-.23-.36-.21-.37s.36.49,1,1.19c.89.9,1.94,1.64,3.08,2.18,1.14.55,2.36.92,3.61,1.09.99.07,1.6.06,1.61.1Z"/>
    <path class="st13" d="M315.62,345.67c-.43-.2-.85-.41-1.26-.65-1.01-.53-2.05-.98-3.13-1.34-1.07-.37-2.17-.65-3.29-.85-.86-.15-1.4-.21-1.4-.24h.39c.24,0,.59,0,1,.1,2.28.31,4.47,1.06,6.47,2.2.38.22.68.41.88.55.12.06.24.14.34.23Z"/>
    <path class="st13" d="M315.64,350.55c-.13.07-.28.12-.42.16-.4.11-.81.18-1.23.19-1.38.04-2.74-.4-3.84-1.24-1.32-1-1.79-2.46-2.5-3.18-.36-.42-.83-.74-1.35-.92.15,0,.3.03.44.1.38.16.72.41,1,.72.77.73,1.26,2.17,2.52,3.12,1.07.81,2.37,1.25,3.71,1.25.56-.01,1.12-.08,1.67-.2Z"/>
    <path class="st6" d="M306.88,341.87l-.15.13-.44.35c-.39.29-1,.68-1.72,1.13-1.97,1.12-4.01,2.1-6.12,2.93l-6.28,2.59-1.91.76-.52.19-.19.06s.05,0,.17-.1l.51-.23,1.88-.81,6.26-2.61c2.1-.83,4.15-1.78,6.13-2.87.75-.42,1.34-.8,1.74-1.07.2-.16.42-.31.64-.45Z"/>
    <path class="st6" d="M300.34,339.4c-.41.39-.87.72-1.37,1-1.33.75-2.82,1.18-4.34,1.25-.5.02-1.01,0-1.51-.05-.56-.05-1.1-.27-1.53-.63-.49-.42-.63-1.12-.33-1.69.37-.53.91-.91,1.53-1.08,2.59-.98,5.34-1.45,8.1-1.4.73,0,1.45.06,2.17.17.36.06.7.2,1,.41.33.23.52.6.52,1-.07.71-.43,1.36-1,1.8-.5.44-1,.85-1.51,1.24-1.81,1.35-3.81,2.41-5.94,3.14-1.43.49-2.92.82-4.42,1-.55.08-1.1.11-1.66.11l.43-.05c.28,0,.69-.07,1.22-.14,1.49-.21,2.96-.57,4.38-1.08,2.11-.75,4.09-1.81,5.88-3.16.5-.38,1-.79,1.49-1.23.51-.4.84-.99.92-1.64,0-.68-.71-1.07-1.37-1.18-.71-.1-1.42-.15-2.14-.16-2.73-.05-5.44.41-8,1.37-.58.16-1.09.51-1.44,1-.26.5-.14,1.11.29,1.47.4.35.9.56,1.43.6.49.06.99.08,1.49.06,1.51-.06,2.98-.46,4.31-1.17.35-.2.68-.41,1-.65l.4-.31Z"/>
  </g>
  <g id="freepik--Table--inject-4">
    <path class="st6" d="M702.18,460.58c0,.15-146.49.26-327.16.26s-327.2-.11-327.2-.26,146.46-.26,327.2-.26,327.16.12,327.16.26Z"/>
  </g>
</svg>